<?xml version="1.0" encoding="utf-8"?>
<!-- Generator: Adobe Illustrator 27.9.0, SVG Export Plug-In . SVG Version: 6.00 Build 0)  -->
<svg version="1.1" id="Camada_1" xmlns="http://www.w3.org/2000/svg" xmlns:xlink="http://www.w3.org/1999/xlink" x="0px" y="0px"
	 viewBox="0 0 16 16" style="enable-background:new 0 0 16 16;" xml:space="preserve">
<path d="M1.495,4.608c0.207-0.274,0.477-0.645,0.636-0.854c0-0.097,0.032-0.193,0.095-0.258L3.61,2.095
	c0.08-0.081,0.175-0.113,0.27-0.097c0.191-0.113,0.573-0.354,0.875-0.612c0.493-0.435,1.4-1.208,2.783-1.353
	C9.05-0.113,10.37,0.741,11.34,1.515c0.302,0.226,0.636,0.451,0.779,0.532c0.127-0.032,0.254-0.016,0.35,0.081l1.384,1.402
	c0.08,0.081,0.111,0.177,0.095,0.29c0.159,0.209,0.445,0.58,0.7,0.886c0.429,0.5,1.193,1.434,1.336,2.836
	c0.143,1.531-0.7,2.868-1.463,3.851c-0.175,0.226-0.382,0.499-0.525,0.709c0.111,0.145,0.095,0.338-0.032,0.467L12.58,13.97
	c-0.127,0.129-0.318,0.129-0.461,0.032c-0.191,0.113-0.572,0.355-0.891,0.628c-0.493,0.419-1.4,1.192-2.799,1.337
	c-0.111,0.016-0.223,0.016-0.35,0.016c-1.368,0-2.561-0.79-3.467-1.499c-0.302-0.242-0.557-0.387-0.668-0.451
	c-0.127,0.064-0.286,0.048-0.398-0.064l-1.384-1.402c-0.095-0.097-0.127-0.226-0.095-0.338c-0.143-0.193-0.461-0.612-0.732-0.951
	c-0.414-0.499-1.177-1.418-1.32-2.836C-0.127,6.929,0.731,5.591,1.495,4.608z M6.187,9.909c1.034,1.063,2.72,1.063,3.769,0
	c1.034-1.047,1.034-2.755,0-3.819c-1.034-1.047-2.72-1.047-3.769,0C5.137,7.154,5.137,8.862,6.187,9.909z M4.087,10.457L3.61,10.941
	l1.511,1.531l0.477-0.483L4.087,10.457z M10.592,12.101l0.509,0.467l1.431-1.611l-0.509-0.467L10.592,12.101z M12.071,5.446
	l0.477-0.483l-1.511-1.531L10.56,3.915L12.071,5.446z M5.598,3.915L5.121,3.432L3.61,4.963l0.477,0.483L5.598,3.915z M6.187,4.189
	c0.159,0.161,0.398,0.209,0.62,0.145c0.811-0.29,1.718-0.29,2.529,0c0.223,0.081,0.461,0.032,0.62-0.145l1.32-1.337
	C10.338,2.24,9.225,1.885,8.032,1.885c-1.161,0-2.258,0.338-3.181,0.918L6.187,4.189z M11.833,6.107
	c-0.159,0.161-0.207,0.403-0.143,0.628c0.286,0.822,0.286,1.74,0,2.562c-0.08,0.226-0.032,0.467,0.143,0.628l1.32,1.337
	c0.573-0.935,0.907-2.046,0.907-3.223c0-1.192-0.334-2.304-0.922-3.239L11.833,6.107z M9.94,11.827
	c-0.159-0.161-0.398-0.209-0.62-0.145c-0.811,0.29-1.718,0.29-2.529,0c-0.223-0.081-0.461-0.032-0.62,0.145l-1.368,1.386
	c0.922,0.596,2.02,0.935,3.197,0.935c1.209,0,2.322-0.355,3.26-0.983L9.94,11.827z M4.31,9.909c0.159-0.161,0.207-0.403,0.143-0.628
	c-0.286-0.822-0.286-1.74,0-2.562c0.08-0.226,0.032-0.467-0.143-0.628L2.942,4.705C2.338,5.656,1.972,6.8,1.972,8.008
	c0,1.208,0.35,2.336,0.954,3.287L4.31,9.909z M11.165,1.772C10.227,1.031,8.97,0.209,7.57,0.354
	C6.378,0.467,5.598,1.063,4.946,1.611C4.692,1.837,4.39,2.03,4.183,2.159l0.064,0.064c1.082-0.709,2.37-1.128,3.769-1.128
	c1.415,0,2.736,0.435,3.817,1.176l0.032-0.016C11.769,2.191,11.483,2.03,11.165,1.772z M15.666,7.573
	c-0.111-1.208-0.7-1.998-1.241-2.659c-0.223-0.274-0.461-0.58-0.636-0.806l-0.08,0.081c0.716,1.096,1.145,2.417,1.145,3.819
	c0,1.402-0.414,2.707-1.129,3.803l0.048,0.064c0.143-0.209,0.35-0.467,0.509-0.677C14.998,10.248,15.809,8.991,15.666,7.573z
	 M4.819,14.244c0.938,0.725,2.195,1.547,3.579,1.418c1.193-0.113,1.972-0.709,2.624-1.257c0.302-0.258,0.652-0.483,0.859-0.612
	l-0.032-0.032C10.751,14.518,9.431,14.953,8,14.953c-1.4,0-2.688-0.419-3.769-1.16l-0.032,0.032
	C4.342,13.905,4.564,14.051,4.819,14.244z M0.35,8.427c0.111,1.208,0.7,1.998,1.241,2.659c0.254,0.306,0.525,0.677,0.684,0.886
	l0.064-0.064C1.59,10.796,1.161,9.458,1.161,8.024c0-1.434,0.429-2.788,1.177-3.899L2.274,4.06C2.115,4.27,1.893,4.56,1.718,4.802
	C1.018,5.752,0.207,7.009,0.35,8.427z"/>
</svg>
