<svg width="31" height="37" viewBox="0 0 31 37" fill="none" xmlns="http://www.w3.org/2000/svg">
<path d="M27.3687 33.5724C26.1217 34.081 24.8358 34.4043 23.5558 34.5199C22.2702 34.641 20.9962 34.5601 19.7394 34.3444L18.7911 34.1461C18.477 34.0781 18.1628 33.9765 17.8486 33.8973C17.5345 33.8181 17.2259 33.7165 16.9118 33.6092C16.6033 33.5076 16.2892 33.4059 15.9807 33.2818C14.7411 32.836 13.5016 32.289 12.2228 31.7813C10.944 31.2736 9.62023 30.8107 8.25683 30.5219C7.91459 30.4426 7.5667 30.3802 7.2188 30.329C6.86614 29.8118 6.45786 29.0193 6.17375 27.8565L10.5956 28.4542C10.5956 28.4542 12.5611 21.8659 13.1823 19.7951C14.8878 14.1383 14.7092 10.5557 14.7092 10.5557C14.7092 10.5557 16.6061 13.7541 18.0469 17.7209C18.0469 17.7209 20.1859 23.5364 19.4753 25.3599C19.4753 25.3599 16.3343 27.179 13.3571 28.4649L23.5456 27.8942C23.5456 27.8942 23.2959 29.3705 22.9063 30.6163C22.9568 30.6388 23.0073 30.6558 23.0634 30.6727C23.2821 30.7405 23.5964 30.7804 24.0061 30.8036C24.4158 30.8268 24.9939 30.8391 25.7348 30.8405C26.442 30.8418 27.0033 30.826 27.4075 30.7874C27.8117 30.7545 28.0981 30.6595 28.2556 30.5082C28.413 30.3569 28.4752 30.1268 28.4308 29.8235C28.3865 29.5202 28.2806 29.1045 28.1076 28.582C28.1076 28.582 15.6197 0.75919 15.5579 0.792766C15.4961 0.826341 2.91148 28.4962 2.91148 28.4962C2.73655 29.0012 2.62915 29.4109 2.58368 29.714C2.54385 30.006 2.58834 30.2306 2.71714 30.3937C1.80757 30.5436 0.909099 30.7666 0.0385334 31.0738C2.76643 31.0564 5.39839 31.3195 7.88326 32.2113C9.12853 32.6403 10.3455 33.176 11.5737 33.7453L13.4412 34.6023C14.075 34.873 14.7143 35.1493 15.3762 35.3863C16.6944 35.8604 18.0576 36.2391 19.4549 36.4102C20.8634 36.57 22.3004 36.539 23.7042 36.2271C25.108 35.9209 26.473 35.3563 27.7149 34.55C28.9456 33.7325 30.1037 32.7352 30.9761 31.4509C29.8462 32.3753 28.6213 33.0637 27.3687 33.5724Z" fill="#2B3990"/>
</svg>
