<svg width="180" height="40" viewBox="0 0 180 40" fill="none" xmlns="http://www.w3.org/2000/svg">
<path d="M27.3687 33.5724C26.1217 34.081 24.8358 34.4043 23.5558 34.5199C22.2702 34.641 20.9962 34.5601 19.7394 34.3444L18.7911 34.1461C18.477 34.0781 18.1628 33.9765 17.8486 33.8973C17.5345 33.8181 17.2259 33.7165 16.9118 33.6092C16.6033 33.5076 16.2892 33.4059 15.9807 33.2818C14.7411 32.836 13.5016 32.289 12.2228 31.7813C10.944 31.2736 9.62023 30.8107 8.25683 30.5219C7.91459 30.4426 7.5667 30.3802 7.2188 30.329C6.86614 29.8118 6.45786 29.0193 6.17375 27.8565L10.5956 28.4542C10.5956 28.4542 12.5611 21.8659 13.1823 19.7951C14.8878 14.1383 14.7092 10.5557 14.7092 10.5557C14.7092 10.5557 16.6061 13.7541 18.0469 17.7209C18.0469 17.7209 20.1859 23.5364 19.4753 25.3599C19.4753 25.3599 16.3343 27.179 13.3571 28.4649L23.5456 27.8942C23.5456 27.8942 23.2959 29.3705 22.9063 30.6163C22.9568 30.6388 23.0073 30.6558 23.0634 30.6727C23.2821 30.7405 23.5964 30.7804 24.0061 30.8036C24.4158 30.8268 24.9939 30.8391 25.7348 30.8405C26.442 30.8418 27.0033 30.826 27.4075 30.7874C27.8117 30.7545 28.0981 30.6595 28.2556 30.5082C28.413 30.3569 28.4752 30.1268 28.4308 29.8235C28.3865 29.5202 28.2806 29.1045 28.1076 28.582C28.1076 28.582 15.6198 0.75919 15.5579 0.792766C15.4961 0.826341 2.91148 28.4962 2.91148 28.4962C2.73655 29.0012 2.62915 29.4109 2.58368 29.714C2.54385 30.0059 2.58834 30.2306 2.71714 30.3937C1.80757 30.5436 0.909099 30.7666 0.0385334 31.0738C2.76643 31.0564 5.39839 31.3195 7.88326 32.2113C9.12853 32.6403 10.3455 33.176 11.5737 33.7453L13.4412 34.6023C14.075 34.873 14.7143 35.1493 15.3762 35.3863C16.6944 35.8604 18.0576 36.2391 19.4549 36.4102C20.8634 36.57 22.3004 36.539 23.7042 36.2271C25.108 35.9209 26.473 35.3563 27.7149 34.55C28.9456 33.7325 30.1037 32.7352 30.9761 31.4509C29.8462 32.3753 28.6213 33.0637 27.3687 33.5724Z" fill="#2B3990"/>
<path d="M19.4459 38.235C18.5871 38.2222 17.751 38.1308 16.9261 37.9889C15.2821 37.6827 13.7059 37.1407 12.158 36.4416C11.7711 36.2669 11.3841 36.0808 10.9972 35.9005C10.6102 35.7144 10.2289 35.5172 9.80267 35.3311C8.98391 34.9422 8.12009 34.6318 7.23933 34.3831C6.35855 34.14 5.45516 33.9867 4.54036 33.9345C3.63112 33.9048 2.70494 33.9367 1.85123 34.2328C2.74358 34.2906 3.58515 34.483 4.4098 34.726C5.23447 34.9577 6.03093 35.268 6.81048 35.612C7.59005 35.9503 8.34709 36.3279 9.09285 36.7392C9.82739 37.1448 10.6404 37.6124 11.4592 37.9788C13.108 38.7455 14.9312 39.2599 16.7833 39.3307C17.7094 39.3661 18.6357 39.2611 19.5285 39.0774C20.4213 38.8713 21.2751 38.5529 22.0673 38.1332C21.1691 38.1877 20.3102 38.2759 19.4459 38.235Z" fill="#2B3990"/>
<path d="M52.4844 25.6342C52.596 25.9657 52.6629 26.2241 52.6906 26.4151C52.7183 26.606 52.6788 26.752 52.5776 26.8472C52.4763 26.9425 52.2966 27.0039 52.044 27.0259C51.7858 27.0479 51.4377 27.0585 50.9887 27.0577C50.5229 27.0568 50.158 27.0505 49.8999 27.0332C49.6417 27.0215 49.4397 26.993 49.3051 26.9479C49.1704 26.9027 49.0695 26.852 49.0191 26.7733C48.9631 26.7002 48.9184 26.6046 48.8849 26.4867L47.696 22.919L41.0223 22.9066L39.8933 26.3746C39.8538 26.5037 39.8087 26.6103 39.7468 26.6944C39.6849 26.7841 39.5893 26.8513 39.4601 26.9016C39.3309 26.9519 39.14 26.9853 38.8987 27.0017C38.6573 27.0181 38.3373 27.0287 37.9444 27.028C37.5235 27.0272 37.1923 27.0154 36.9566 26.9868C36.7209 26.9583 36.5527 26.8906 36.463 26.7894C36.3734 26.6826 36.34 26.5365 36.3685 26.3457C36.3969 26.1548 36.4647 25.8966 36.5775 25.5768L42.0792 9.83691C42.1356 9.67979 42.1976 9.55638 42.2707 9.46106C42.3438 9.36574 42.4619 9.29296 42.6191 9.24272C42.7764 9.19247 43.0009 9.1592 43.2816 9.14849C43.5623 9.13778 43.9383 9.12724 44.4042 9.1281C44.9431 9.1291 45.3752 9.13551 45.6951 9.15294C46.015 9.17038 46.262 9.19891 46.4415 9.24977C46.621 9.30064 46.7443 9.37387 46.8227 9.47508C46.9011 9.5763 46.9682 9.71118 47.0184 9.88534L52.4844 25.6342ZM44.3641 12.6037L44.3529 12.6037L41.83 20.1456L46.8648 20.1549L44.3641 12.6037Z" fill="#2B3990"/>
<path d="M57.9462 10.147C57.9449 10.8432 57.8037 11.3202 57.517 11.5892C57.2358 11.8526 56.708 11.9864 55.939 11.985C55.1644 11.9836 54.6371 11.8534 54.3681 11.6003C54.0992 11.3471 53.9653 10.8808 53.9666 10.2126C53.9678 9.51636 54.109 9.03374 54.3902 8.76474C54.6713 8.49574 55.1992 8.36195 55.9738 8.36338C56.7427 8.3648 57.2645 8.49491 57.539 8.75932C57.8136 9.02374 57.9474 9.47879 57.9462 10.147ZM57.6522 26.5253C57.652 26.6152 57.6238 26.6993 57.5675 26.7666C57.5113 26.8339 57.4214 26.8899 57.2866 26.9402C57.1518 26.9905 56.9777 27.0182 56.7588 27.0403C56.5398 27.0623 56.2592 27.073 55.9224 27.0724C55.5856 27.0718 55.305 27.06 55.0861 27.0372C54.8673 27.0143 54.6877 26.9803 54.5587 26.9351C54.4297 26.89 54.3344 26.8336 54.2784 26.7606C54.2224 26.6931 54.1945 26.6144 54.1946 26.519L54.2172 14.3064C54.2174 14.2166 54.2456 14.1324 54.3018 14.0651C54.3581 13.9978 54.448 13.9362 54.5828 13.886C54.7176 13.8357 54.8917 13.7967 55.1106 13.769C55.3296 13.7413 55.6102 13.7306 55.947 13.7313C56.2838 13.7319 56.5644 13.7436 56.7833 13.7721C57.0021 13.8006 57.176 13.8402 57.3107 13.891C57.4453 13.9418 57.535 14.0037 57.591 14.0712C57.647 14.1387 57.6749 14.2173 57.6747 14.3128L57.6522 26.5253Z" fill="#2B3990"/>
<path d="M72.1334 26.552C72.1332 26.6531 72.1106 26.7373 72.0655 26.8046C72.0205 26.8719 71.9418 26.9279 71.8295 26.9782C71.7171 27.0229 71.5711 27.0563 71.3859 27.0728C71.2006 27.0894 70.9649 27.1001 70.6954 27.0996C70.4036 27.0991 70.1679 27.0874 69.9827 27.0703C69.7975 27.0531 69.6516 27.0191 69.5394 26.974C69.4273 26.9289 69.3432 26.8726 69.2928 26.7995C69.2424 26.732 69.2201 26.6477 69.2203 26.5467L69.2228 25.1878C68.5929 25.8661 67.9296 26.3871 67.2385 26.762C66.5475 27.1369 65.7838 27.3208 64.9418 27.3192C64.0101 27.3175 63.219 27.1364 62.5798 26.7702C61.935 26.4097 61.4083 25.9202 61.0053 25.3074C60.6023 24.6946 60.3061 23.9754 60.1224 23.1609C59.9387 22.3407 59.8505 21.4815 59.8522 20.5719C59.8542 19.4826 59.9738 18.5058 60.2056 17.6359C60.4429 16.766 60.7811 16.0254 61.2312 15.4142C61.6814 14.803 62.2379 14.3324 62.9065 14.0024C63.575 13.6723 64.3443 13.5109 65.2087 13.5125C65.8934 13.5138 66.5162 13.6553 67.0714 13.9371C67.6265 14.2188 68.1814 14.6297 68.7305 15.1698L68.7427 8.54414C68.7429 8.4543 68.7655 8.37012 68.8162 8.29722C68.8668 8.22432 68.9567 8.16272 69.0915 8.11243C69.2263 8.06215 69.4004 8.02316 69.6194 7.99549C69.8383 7.96782 70.119 7.95711 70.4557 7.95773C70.7925 7.95835 71.0731 7.9701 71.292 7.99858C71.5108 8.02706 71.6848 8.06668 71.8138 8.11746C71.9428 8.16823 72.0325 8.23016 72.0885 8.30326C72.1445 8.37636 72.1724 8.46063 72.1722 8.55047L72.139 26.552L72.1334 26.552ZM68.7246 18.3703C68.2318 17.7461 67.7612 17.2736 67.3072 16.9415C66.8531 16.6094 66.382 16.4457 65.888 16.4448C65.439 16.4439 65.0515 16.5555 64.7312 16.7795C64.4052 17.0035 64.1465 17.3006 63.9493 17.6765C63.7522 18.0523 63.6055 18.4676 63.5092 18.9334C63.4129 19.3937 63.3615 19.8709 63.3606 20.3537C63.3597 20.8647 63.3981 21.3645 63.4814 21.8476C63.5647 22.3306 63.6986 22.7632 63.8831 23.1454C64.0676 23.5275 64.3196 23.8312 64.6279 24.0564C64.9362 24.2815 65.3289 24.4002 65.806 24.401C66.0417 24.4015 66.2719 24.3682 66.4966 24.3013C66.7212 24.2343 66.9515 24.1224 67.1819 23.9656C67.4124 23.8088 67.6541 23.6071 67.9015 23.3549C68.149 23.1027 68.4189 22.7944 68.7115 22.4299L68.719 18.3703L68.7246 18.3703Z" fill="#2B3990"/>
<path d="M94.4376 24.3697C94.4371 24.5999 94.4312 24.7908 94.414 24.9536C94.4025 25.1164 94.3798 25.2511 94.3515 25.3634C94.3233 25.4756 94.2894 25.5766 94.2387 25.6608C94.1881 25.7449 94.1206 25.8346 94.0193 25.9411C93.9181 26.0476 93.7214 26.182 93.4348 26.3443C93.1483 26.5066 92.7944 26.6632 92.3787 26.814C91.9631 26.9649 91.4858 27.0875 90.9524 27.1876C90.419 27.2877 89.8408 27.3371 89.2177 27.336C87.9997 27.3337 86.9056 27.1464 85.9296 26.7684C84.9537 26.3904 84.1184 25.8274 83.435 25.0849C82.7516 24.3425 82.2257 23.4094 81.8629 22.2914C81.5002 21.1733 81.3173 19.8759 81.3201 18.3936C81.3228 16.8832 81.5274 15.5472 81.9337 14.3744C82.3399 13.2072 82.9031 12.22 83.6286 11.4297C84.3541 10.6337 85.2196 10.0345 86.2307 9.62082C87.2418 9.21279 88.3535 9.00709 89.5715 9.00934C90.0654 9.01025 90.5424 9.05044 90.9969 9.1355C91.4514 9.22057 91.8778 9.32803 92.2648 9.45789C92.6519 9.59337 93.0052 9.74563 93.3136 9.92026C93.622 10.0949 93.8406 10.2413 93.9639 10.365C94.0871 10.4888 94.1711 10.59 94.2159 10.6743C94.2606 10.7586 94.2997 10.8598 94.3276 10.989C94.3554 11.1182 94.3776 11.2698 94.3885 11.4439C94.3994 11.618 94.4102 11.8314 94.4097 12.0897C94.4092 12.3648 94.3976 12.595 94.3804 12.7915C94.3632 12.9824 94.3292 13.1395 94.2841 13.2574C94.239 13.3752 94.1827 13.4649 94.1208 13.5153C94.059 13.5714 93.986 13.5993 93.9018 13.5992C93.7671 13.5989 93.5932 13.52 93.3802 13.3568C93.1672 13.1991 92.8981 13.019 92.5673 12.8218C92.2366 12.6247 91.8384 12.4443 91.3784 12.2862C90.9185 12.1225 90.3685 12.0429 89.7287 12.0417C89.0271 12.0404 88.3981 12.1853 87.8419 12.4706C87.2857 12.7559 86.8191 13.1706 86.4252 13.7033C86.0369 14.236 85.7383 14.8868 85.5348 15.6444C85.3313 16.4021 85.2287 17.261 85.227 18.2099C85.225 19.2543 85.33 20.1585 85.5419 20.9225C85.7538 21.6865 86.0613 22.316 86.4589 22.8108C86.8565 23.3057 87.3329 23.6772 87.8994 23.9196C88.4602 24.1621 89.0943 24.2868 89.7959 24.2881C90.4357 24.2893 90.9915 24.2173 91.4577 24.0666C91.9238 23.9158 92.3227 23.7481 92.6598 23.5691C92.9913 23.3844 93.2666 23.2221 93.4858 23.0765C93.6993 22.9309 93.8678 22.8582 93.9857 22.8584C94.0755 22.8586 94.1485 22.8756 94.2045 22.915C94.2606 22.9544 94.3053 23.0275 94.3388 23.1342C94.3779 23.2466 94.4001 23.3982 94.4222 23.5948C94.433 23.7801 94.4382 24.0384 94.4376 24.3697Z" fill="#2B3990"/>
<path d="M104.697 15.5113C104.697 15.8426 104.685 16.1121 104.668 16.3198C104.651 16.5275 104.622 16.6959 104.583 16.8138C104.543 16.9316 104.498 17.0158 104.436 17.0606C104.375 17.1054 104.302 17.1277 104.212 17.1275C104.139 17.1274 104.055 17.1104 103.965 17.0765C103.875 17.0427 103.769 17.0088 103.656 16.9749C103.544 16.941 103.415 16.9015 103.281 16.8731C103.146 16.8392 102.994 16.8221 102.826 16.8218C102.635 16.8214 102.444 16.8604 102.248 16.9386C102.057 17.0169 101.854 17.1344 101.652 17.3025C101.444 17.4649 101.23 17.6835 101.005 17.9582C100.78 18.233 100.538 18.5694 100.285 18.9732L100.271 26.5983C100.271 26.6882 100.243 26.7724 100.186 26.8396C100.13 26.9069 100.04 26.9629 99.9053 27.0132C99.7705 27.0635 99.5964 27.0912 99.3775 27.1133C99.1585 27.1353 98.8779 27.146 98.5411 27.1454C98.2043 27.1448 97.9237 27.1331 97.7049 27.1102C97.486 27.0873 97.3064 27.0533 97.1774 27.0081C97.0484 26.963 96.9531 26.9067 96.8971 26.8336C96.8411 26.7661 96.8132 26.6874 96.8134 26.592L96.836 14.357C96.8361 14.2671 96.8587 14.1829 96.9037 14.1156C96.9488 14.0483 97.0331 13.9923 97.151 13.942C97.269 13.8973 97.4206 13.8639 97.6115 13.8418C97.8024 13.8197 98.0325 13.8089 98.3188 13.8094C98.6106 13.81 98.852 13.8216 99.0428 13.8445C99.2336 13.8673 99.385 13.9012 99.486 13.9463C99.5926 13.9915 99.6654 14.0477 99.7102 14.1208C99.755 14.1883 99.7773 14.2669 99.7771 14.3624L99.7743 15.884C100.095 15.4298 100.399 15.0486 100.68 14.7515C100.961 14.4544 101.237 14.2191 101.49 14.0455C101.748 13.8719 102.001 13.7545 102.259 13.6819C102.518 13.615 102.77 13.5818 103.028 13.5823C103.146 13.5825 103.275 13.5884 103.41 13.6055C103.55 13.6169 103.691 13.6453 103.836 13.6736C103.982 13.7076 104.111 13.7415 104.218 13.7866C104.33 13.8261 104.409 13.8712 104.459 13.9162C104.51 13.9612 104.549 14.0118 104.571 14.068C104.593 14.1242 104.616 14.1973 104.632 14.2927C104.649 14.3882 104.666 14.5342 104.671 14.7252C104.693 14.9217 104.698 15.1856 104.697 15.5113Z" fill="#2B3990"/>
<path d="M118.406 26.6375C118.406 26.7273 118.383 26.8115 118.338 26.8788C118.293 26.9461 118.215 27.0021 118.097 27.0524C117.984 27.0971 117.833 27.1305 117.642 27.1526C117.456 27.1748 117.221 27.1856 116.934 27.185C116.631 27.1845 116.39 27.1728 116.199 27.15C116.014 27.1272 115.863 27.0932 115.756 27.0481C115.644 27.003 115.571 26.9467 115.521 26.8736C115.476 26.8061 115.453 26.7275 115.454 26.632L115.456 25.2171C114.776 25.9457 114.09 26.4947 113.388 26.8584C112.685 27.2221 111.961 27.4061 111.215 27.4047C110.373 27.4031 109.666 27.2671 109.099 26.9909C108.527 26.7147 108.068 26.3376 107.715 25.8653C107.362 25.3874 107.111 24.8367 106.966 24.2131C106.815 23.584 106.744 22.809 106.746 21.8713L106.759 14.3809C106.76 14.2911 106.782 14.2069 106.833 14.1396C106.884 14.0723 106.973 14.0164 107.108 13.9661C107.243 13.9214 107.417 13.888 107.642 13.866C107.866 13.8439 108.141 13.8332 108.472 13.8338C108.809 13.8344 109.09 13.8462 109.309 13.8691C109.528 13.8919 109.701 13.9259 109.836 13.9711C109.971 14.0163 110.06 14.0726 110.116 14.1457C110.172 14.2132 110.2 14.2918 110.2 14.3873L110.187 21.2993C110.186 21.9394 110.225 22.428 110.308 22.765C110.392 23.1021 110.515 23.3943 110.683 23.636C110.851 23.8778 111.064 24.0691 111.327 24.1987C111.585 24.334 111.894 24.3963 112.236 24.3969C112.674 24.3977 113.118 24.2357 113.562 23.9165C114.006 23.5973 114.478 23.1321 114.984 22.521L114.999 14.3849C114.999 14.2951 115.022 14.2109 115.073 14.1436C115.123 14.0763 115.213 14.0203 115.348 13.97C115.483 13.9254 115.657 13.892 115.876 13.8699C116.095 13.8479 116.375 13.8372 116.712 13.8378C117.049 13.8384 117.33 13.8502 117.548 13.873C117.767 13.8959 117.941 13.9299 118.07 13.9751C118.199 14.0202 118.289 14.0765 118.345 14.1496C118.401 14.2171 118.429 14.2958 118.429 14.3912L118.406 26.6375Z" fill="#2B3990"/>
<path d="M129.369 23.1989C129.367 23.8951 129.237 24.5069 128.972 25.0343C128.713 25.5616 128.342 26.0045 127.864 26.363C127.386 26.7214 126.825 26.9843 126.179 27.1628C125.527 27.3413 124.826 27.4298 124.068 27.4284C123.613 27.4276 123.175 27.3931 122.76 27.3249C122.345 27.2568 121.969 27.1662 121.644 27.0646C121.313 26.9573 121.038 26.8501 120.819 26.743C120.601 26.6303 120.438 26.5289 120.343 26.4333C120.242 26.3376 120.164 26.1859 120.108 25.978C120.052 25.7702 120.025 25.4669 120.025 25.0683C120.026 24.8044 120.037 24.591 120.055 24.4282C120.072 24.2654 120.1 24.1419 120.139 24.0465C120.173 23.9512 120.224 23.8839 120.274 23.8559C120.331 23.8223 120.398 23.8056 120.482 23.8057C120.583 23.8059 120.729 23.8623 120.925 23.9806C121.122 24.0933 121.368 24.2229 121.66 24.3582C121.952 24.4935 122.294 24.6233 122.681 24.7419C123.068 24.8605 123.511 24.9231 124.005 24.924C124.314 24.9246 124.594 24.8914 124.836 24.8301C125.077 24.7688 125.291 24.6737 125.465 24.5561C125.645 24.4385 125.78 24.2872 125.87 24.102C125.96 23.9169 126.011 23.7093 126.012 23.4734C126.012 23.1983 125.928 22.9623 125.76 22.7655C125.592 22.5686 125.368 22.3942 125.088 22.2477C124.807 22.1011 124.493 21.9658 124.14 21.836C123.786 21.7062 123.428 21.5652 123.057 21.4073C122.687 21.2494 122.328 21.0747 121.975 20.8719C121.622 20.6691 121.308 20.4214 121.028 20.1289C120.748 19.8364 120.524 19.4823 120.356 19.0721C120.189 18.6619 120.105 18.1676 120.106 17.5893C120.107 17.0053 120.221 16.4665 120.452 15.9784C120.683 15.4903 121.009 15.0698 121.442 14.7225C121.875 14.3751 122.397 14.1066 123.015 13.9168C123.633 13.727 124.323 13.6329 125.092 13.6343C125.474 13.635 125.85 13.6638 126.209 13.7206C126.568 13.7774 126.899 13.8454 127.191 13.9301C127.483 14.0149 127.73 14.1052 127.931 14.201C128.133 14.2969 128.279 14.3813 128.363 14.4489C128.453 14.5164 128.509 14.5839 128.548 14.657C128.582 14.7244 128.609 14.8087 128.632 14.9042C128.648 14.9997 128.665 15.1176 128.682 15.2636C128.693 15.404 128.703 15.5837 128.703 15.7915C128.703 16.0385 128.697 16.2407 128.68 16.3979C128.662 16.5551 128.64 16.6785 128.611 16.7683C128.578 16.8581 128.538 16.9198 128.482 16.9534C128.426 16.987 128.364 17.0037 128.291 17.0036C128.207 17.0034 128.078 16.9526 127.91 16.8569C127.741 16.7611 127.517 16.6596 127.259 16.5468C127.001 16.4341 126.698 16.3324 126.356 16.2364C126.014 16.1403 125.621 16.089 125.183 16.0882C124.875 16.0876 124.605 16.1208 124.375 16.1822C124.145 16.2435 123.959 16.3386 123.813 16.4563C123.667 16.5739 123.554 16.7141 123.481 16.8768C123.408 17.0395 123.368 17.2078 123.368 17.3931C123.367 17.6795 123.451 17.9155 123.625 18.1067C123.798 18.2979 124.028 18.4668 124.309 18.6133C124.589 18.7598 124.914 18.8952 125.273 19.025C125.632 19.1548 125.997 19.2959 126.373 19.4482C126.743 19.6004 127.107 19.7752 127.466 19.978C127.825 20.1808 128.15 20.4284 128.43 20.7209C128.71 21.0134 128.94 21.362 129.113 21.7722C129.286 22.16 129.37 22.643 129.369 23.1989Z" fill="#2B3990"/>
<path d="M141.817 26.72C141.817 26.8491 141.772 26.9501 141.676 27.023C141.586 27.0958 141.44 27.1461 141.244 27.1794C141.047 27.2127 140.755 27.229 140.374 27.2283C139.964 27.2275 139.661 27.2101 139.476 27.1761C139.291 27.1421 139.156 27.0913 139.078 27.0182C138.999 26.945 138.96 26.8439 138.96 26.7147L138.962 25.7433C138.456 26.2814 137.883 26.7015 137.237 27.0035C136.59 27.3055 135.877 27.4558 135.092 27.4544C134.44 27.4532 133.846 27.3679 133.302 27.1984C132.757 27.029 132.286 26.7754 131.888 26.4434C131.491 26.1114 131.183 25.6953 130.965 25.2008C130.747 24.7063 130.635 24.1277 130.637 23.4708C130.638 22.7577 130.779 22.1403 131.061 21.613C131.343 21.0857 131.759 20.6541 132.31 20.3126C132.86 19.9711 133.551 19.7197 134.376 19.5528C135.202 19.3915 136.156 19.309 137.245 19.311L138.441 19.3132L138.442 18.572C138.443 18.1902 138.404 17.8533 138.326 17.5611C138.248 17.269 138.119 17.0329 137.946 16.8417C137.766 16.6505 137.531 16.5097 137.234 16.4137C136.936 16.3177 136.566 16.2777 136.128 16.2769C135.55 16.2758 135.039 16.3366 134.584 16.4649C134.129 16.5932 133.731 16.7329 133.382 16.8894C133.034 17.046 132.742 17.1859 132.512 17.3146C132.276 17.4433 132.09 17.5047 131.944 17.5044C131.843 17.5042 131.753 17.4704 131.675 17.4085C131.597 17.3466 131.535 17.251 131.485 17.133C131.434 17.015 131.395 16.8689 131.368 16.6948C131.34 16.5207 131.329 16.3298 131.329 16.1164C131.33 15.8357 131.353 15.6111 131.398 15.4427C131.443 15.28 131.533 15.1285 131.657 14.9996C131.786 14.8651 132.011 14.7195 132.331 14.5629C132.652 14.4007 133.028 14.2554 133.455 14.1214C133.887 13.9874 134.353 13.876 134.859 13.7871C135.364 13.7038 135.892 13.6598 136.43 13.6608C137.39 13.6626 138.21 13.7596 138.894 13.9461C139.573 14.1327 140.134 14.4257 140.571 14.8139C141.008 15.2022 141.327 15.7025 141.528 16.3205C141.729 16.9329 141.828 17.6631 141.827 18.4997L141.812 26.72L141.817 26.72ZM138.442 21.475L137.123 21.4726C136.568 21.4715 136.09 21.51 135.697 21.5935C135.304 21.677 134.984 21.7999 134.737 21.9623C134.49 22.1247 134.31 22.3265 134.197 22.5565C134.084 22.7921 134.022 23.0559 134.021 23.3591C134.021 23.8701 134.183 24.2746 134.508 24.5672C134.833 24.8598 135.281 25.0066 135.859 25.0077C136.342 25.0086 136.791 24.8859 137.196 24.6395C137.601 24.3932 138.017 24.0346 138.438 23.5582L138.442 21.475Z" fill="#2B3990"/>
<path d="M155.737 26.7064C155.737 26.8074 155.714 26.8916 155.669 26.9589C155.624 27.0262 155.546 27.0822 155.433 27.1325C155.321 27.1773 155.175 27.2107 154.99 27.2272C154.804 27.2437 154.569 27.2545 154.299 27.254C154.007 27.2534 153.772 27.2418 153.586 27.2246C153.401 27.2074 153.255 27.1734 153.143 27.1283C153.031 27.0832 152.947 27.0269 152.897 26.9538C152.846 26.8863 152.824 26.8021 152.824 26.701L152.827 25.3422C152.197 26.0204 151.533 26.5414 150.842 26.9163C150.151 27.2912 149.388 27.4751 148.546 27.4736C147.614 27.4719 146.823 27.2907 146.184 26.9246C145.539 26.564 145.012 26.0745 144.609 25.4618C144.206 24.849 143.91 24.1297 143.726 23.3152C143.542 22.4951 143.454 21.6358 143.456 20.7262C143.458 19.6369 143.578 18.6601 143.809 17.7902C144.047 16.9203 144.385 16.1798 144.835 15.5686C145.285 14.9574 145.842 14.4867 146.51 14.1567C147.179 13.8266 147.948 13.6652 148.812 13.6668C149.497 13.6681 150.12 13.8096 150.675 14.0914C151.23 14.3732 151.785 14.7841 152.334 15.3241L152.346 8.69846C152.347 8.60862 152.369 8.52445 152.42 8.45155C152.471 8.37865 152.56 8.31705 152.695 8.26676C152.83 8.21647 153.004 8.17749 153.223 8.14982C153.442 8.12215 153.723 8.11144 154.06 8.11206C154.396 8.11268 154.677 8.12442 154.896 8.1529C155.115 8.18138 155.289 8.22101 155.418 8.27179C155.547 8.32256 155.636 8.38449 155.692 8.45759C155.748 8.53069 155.776 8.61495 155.776 8.70479L155.743 26.7064L155.737 26.7064ZM152.323 18.5246C151.83 17.9005 151.359 17.4279 150.905 17.0958C150.451 16.7637 149.98 16.6 149.486 16.5991C149.037 16.5983 148.65 16.7098 148.329 16.9338C148.003 17.1578 147.745 17.455 147.547 17.8308C147.35 18.2066 147.204 18.6219 147.107 19.0877C147.011 19.548 146.96 20.0252 146.959 20.5081C146.958 21.019 146.996 21.5188 147.079 22.0019C147.163 22.4849 147.297 22.9175 147.481 23.2997C147.666 23.6818 147.918 23.9855 148.226 24.2107C148.534 24.4358 148.927 24.5545 149.404 24.5554C149.64 24.5558 149.87 24.5225 150.095 24.4556C150.319 24.3886 150.55 24.2767 150.78 24.1199C151.011 23.9631 151.252 23.7614 151.5 23.5092C151.747 23.257 152.017 22.9487 152.31 22.5843L152.317 18.5246L152.323 18.5246Z" fill="#2B3990"/>
<path d="M169.4 20.2575C169.399 20.6787 169.303 20.9873 169.117 21.1891C168.932 21.3909 168.673 21.4915 168.342 21.4909L160.894 21.4771C160.893 21.9993 160.954 22.4711 161.076 22.8981C161.199 23.325 161.395 23.6847 161.664 23.9828C161.933 24.2809 162.28 24.5062 162.707 24.6642C163.133 24.8222 163.643 24.9017 164.233 24.9028C164.839 24.9039 165.367 24.86 165.821 24.7766C166.276 24.6932 166.675 24.5929 167.006 24.4924C167.338 24.3864 167.619 24.2914 167.838 24.2076C168.057 24.1238 168.236 24.0792 168.371 24.0794C168.455 24.0796 168.523 24.0966 168.579 24.1304C168.635 24.1641 168.679 24.2204 168.713 24.3047C168.747 24.389 168.774 24.5013 168.785 24.6529C168.796 24.8046 168.807 24.9955 168.807 25.2201C168.806 25.4222 168.8 25.5907 168.795 25.7366C168.783 25.877 168.772 26.0005 168.755 26.1015C168.738 26.2026 168.709 26.2867 168.67 26.3541C168.631 26.4214 168.585 26.4887 168.524 26.5503C168.462 26.612 168.304 26.7015 168.035 26.8077C167.765 26.9139 167.428 27.0256 167.018 27.1259C166.608 27.2318 166.137 27.3208 165.603 27.3984C165.07 27.476 164.503 27.5143 163.902 27.5132C162.814 27.5112 161.86 27.3746 161.046 27.098C160.227 26.8214 159.543 26.4046 159 25.8477C158.451 25.2908 158.042 24.5826 157.775 23.7342C157.507 22.8802 157.374 21.8861 157.376 20.7407C157.378 19.6514 157.52 18.669 157.808 17.7992C158.09 16.9238 158.507 16.189 159.047 15.578C159.587 14.9726 160.244 14.5077 161.02 14.1891C161.795 13.8705 162.665 13.7149 163.63 13.7167C164.652 13.7185 165.527 13.8718 166.256 14.1763C166.986 14.4809 167.58 14.8975 168.045 15.4374C168.509 15.9717 168.851 16.6068 169.068 17.3371C169.286 18.0675 169.397 18.865 169.395 19.7241L169.394 20.2575L169.4 20.2575ZM166.051 19.2631C166.08 18.2918 165.885 17.5334 165.471 16.9767C165.057 16.4201 164.412 16.1438 163.547 16.1422C163.11 16.1414 162.728 16.2249 162.402 16.3871C162.076 16.5494 161.806 16.7735 161.592 17.0538C161.379 17.3342 161.21 17.6595 161.097 18.0411C160.984 18.4227 160.916 18.8269 160.898 19.2536L166.051 19.2631Z" fill="#2B3990"/>
<path d="M178.978 15.6484C178.977 15.9797 178.966 16.2492 178.948 16.4569C178.931 16.6647 178.903 16.833 178.863 16.9509C178.824 17.0687 178.779 17.1529 178.717 17.1977C178.655 17.2425 178.582 17.2648 178.492 17.2647C178.419 17.2645 178.335 17.2475 178.245 17.2137C178.156 17.1798 178.049 17.1459 177.937 17.112C177.825 17.0781 177.696 17.0386 177.561 17.0103C177.426 16.9763 177.275 16.9592 177.106 16.9589C176.916 16.9585 176.725 16.9975 176.528 17.0757C176.337 17.154 176.135 17.2715 175.933 17.4396C175.725 17.6021 175.511 17.8206 175.286 18.0954C175.061 18.3701 174.819 18.7065 174.565 19.1103L174.551 26.7355C174.551 26.8253 174.523 26.9095 174.467 26.9768C174.411 27.044 174.321 27.1 174.186 27.1503C174.051 27.2006 173.877 27.2283 173.658 27.2504C173.439 27.2724 173.158 27.2832 172.822 27.2825C172.485 27.2819 172.204 27.2702 171.985 27.2473C171.767 27.2244 171.587 27.1904 171.458 27.1453C171.329 27.1001 171.234 27.0438 171.178 26.9707C171.122 26.9032 171.094 26.8245 171.094 26.7291L171.116 14.4941C171.117 14.4042 171.139 14.3201 171.184 14.2528C171.229 14.1855 171.314 14.1295 171.432 14.0791C171.55 14.0344 171.701 14.001 171.892 13.9789C172.083 13.9568 172.313 13.946 172.599 13.9465C172.891 13.9471 173.132 13.9588 173.323 13.9816C173.514 14.0044 173.666 14.0384 173.767 14.0835C173.873 14.1286 173.946 14.1849 173.991 14.2579C174.035 14.3254 174.058 14.4041 174.058 14.4995L174.055 16.0212C174.376 15.5669 174.679 15.1857 174.961 14.8886C175.242 14.5915 175.517 14.3562 175.77 14.1826C176.029 14.009 176.281 13.8916 176.54 13.8191C176.798 13.7522 177.051 13.7189 177.309 13.7194C177.427 13.7196 177.556 13.7255 177.691 13.7426C177.831 13.7541 177.971 13.7824 178.117 13.8107C178.263 13.8447 178.392 13.8786 178.498 13.9237C178.611 13.9633 178.689 14.0083 178.74 14.0533C178.79 14.0983 178.829 14.149 178.852 14.2051C178.874 14.2613 178.896 14.3344 178.913 14.4299C178.93 14.5253 178.946 14.6714 178.951 14.8623C178.979 15.0589 178.979 15.3228 178.978 15.6484Z" fill="#2B3990"/>
</svg>
