<svg version="1.2" xmlns="http://www.w3.org/2000/svg" viewBox="0 0 193 96" width="193" height="96">
	<title>logo-stack</title>
	<style>
		.s0 { fill: #2b3990 } 
	</style>
	<filter id="f0">
		<feFlood flood-color="#0081b0" flood-opacity="1" />
		<feBlend mode="normal" in2="SourceGraphic"/>
		<feComposite in2="SourceAlpha" operator="in" />
	</filter>
	<g id="Pasta 1" filter="url(#f0)">
		<path class="s0" d="m21.8 93.2q0.2 0.7 0.3 1.1 0.1 0.4-0.1 0.6-0.3 0.2-0.8 0.2-0.5 0.1-1.4 0.1-0.9 0-1.5-0.1-0.5 0-0.8-0.1-0.3-0.1-0.4-0.2-0.1-0.2-0.1-0.4l-1.7-4.8h-9l-1.5 4.7q-0.1 0.2-0.2 0.4-0.1 0.2-0.4 0.3-0.3 0.1-0.8 0.1-0.5 0.1-1.3 0.1-0.8 0-1.3-0.1-0.5 0-0.7-0.3-0.1-0.2-0.1-0.6 0.1-0.3 0.3-1l7.4-21.3q0.1-0.3 0.3-0.5 0.1-0.2 0.4-0.3 0.4-0.1 0.9-0.2 0.6 0 1.5 0 1.1 0 1.8 0 0.6 0.1 1 0.2 0.4 0.1 0.5 0.3 0.2 0.2 0.3 0.5zm-11-17.6h-0.1l-3.4 10.2h6.9z"/>
		<path class="s0" d="m29.2 72.2q0 1.5-0.6 2-0.6 0.5-2.1 0.5-1.6 0-2.2-0.5-0.5-0.5-0.5-1.9 0-1.4 0.6-1.9 0.5-0.6 2.1-0.6 1.6 0 2.1 0.6 0.6 0.5 0.6 1.8zm-0.4 22.2q0 0.2-0.1 0.4-0.1 0.1-0.4 0.2-0.2 0.1-0.7 0.1-0.4 0.1-1.1 0.1-0.7 0-1.2-0.1-0.4 0-0.7-0.1-0.2-0.1-0.3-0.2-0.2-0.2-0.2-0.4v-16.5q0-0.2 0.2-0.3 0.1-0.2 0.3-0.3 0.3-0.1 0.7-0.1 0.5-0.1 1.2-0.1 0.7 0 1.1 0.1 0.5 0 0.7 0.1 0.3 0.1 0.4 0.3 0.1 0.1 0.1 0.3z"/>
		<path class="s0" d="m48.4 94.4q0 0.2-0.1 0.4-0.1 0.1-0.3 0.2-0.2 0.1-0.6 0.1-0.4 0.1-0.9 0.1-0.6 0-1-0.1-0.4 0-0.6-0.1-0.2-0.1-0.3-0.2-0.1-0.2-0.1-0.4v-1.8q-1.3 1.4-2.7 2.1-1.4 0.8-3.1 0.8-1.9 0-3.2-0.7-1.3-0.8-2.1-2-0.9-1.3-1.2-2.9-0.4-1.7-0.4-3.5 0-2.2 0.5-4 0.4-1.8 1.3-3 0.9-1.3 2.3-1.9 1.4-0.7 3.1-0.7 1.4 0 2.5 0.6 1.2 0.5 2.3 1.6v-8.9q0-0.2 0.1-0.4 0.1-0.1 0.4-0.2 0.2-0.1 0.7-0.2 0.4 0 1.1 0 0.7 0 1.1 0 0.5 0.1 0.7 0.2 0.3 0.1 0.4 0.2 0.1 0.2 0.1 0.4v24.3zm-4.6-11q-1-1.3-1.9-2-1-0.6-2-0.6-0.9 0-1.5 0.4-0.7 0.5-1.1 1.2-0.4 0.8-0.6 1.7-0.2 1-0.2 2 0 1 0.2 2 0.2 1 0.6 1.7 0.3 0.8 1 1.3 0.6 0.4 1.6 0.4 0.4 0 0.9-0.1 0.4-0.1 0.9-0.5 0.5-0.3 1-0.8 0.5-0.5 1.1-1.2v-5.5z"/>
		<path class="s0" d="m78.6 91.4q0 0.5 0 0.8-0.1 0.3-0.1 0.6-0.1 0.2-0.2 0.4-0.1 0.1-0.3 0.4-0.2 0.2-0.8 0.5-0.5 0.3-1.4 0.6-0.8 0.3-1.9 0.5-1.1 0.3-2.4 0.3-2.4 0-4.4-0.8-2-0.8-3.4-2.3-1.4-1.5-2.1-3.8-0.8-2.2-0.8-5.2 0-3.1 0.9-5.5 0.8-2.4 2.2-4 1.5-1.6 3.6-2.4 2-0.9 4.5-0.9 1 0 1.9 0.2 0.9 0.2 1.7 0.4 0.8 0.3 1.4 0.7 0.7 0.3 0.9 0.6 0.3 0.2 0.4 0.4 0.1 0.1 0.1 0.4 0.1 0.3 0.1 0.6 0 0.4 0 0.9 0 0.5 0 0.9 0 0.4-0.1 0.7-0.1 0.2-0.3 0.3-0.1 0.1-0.3 0.1-0.2 0-0.7-0.3-0.4-0.3-1.1-0.7-0.6-0.4-1.6-0.7-0.9-0.4-2.2-0.4-1.4 0-2.6 0.6-1.1 0.6-1.9 1.7-0.8 1.1-1.2 2.6-0.4 1.6-0.4 3.5 0 2.1 0.5 3.7 0.4 1.5 1.2 2.5 0.8 1 2 1.5 1.1 0.5 2.5 0.5 1.3 0 2.3-0.3 0.9-0.3 1.6-0.7 0.7-0.3 1.1-0.6 0.4-0.3 0.7-0.3 0.2 0 0.3 0.1 0.1 0 0.2 0.3 0 0.2 0.1 0.6 0 0.3 0 1z"/>
		<path class="s0" d="m92.5 79.4q0 0.7-0.1 1.1 0 0.4-0.1 0.7-0.1 0.2-0.2 0.3-0.1 0.1-0.3 0.1-0.1 0-0.3-0.1-0.2 0-0.4-0.1-0.3-0.1-0.5-0.2-0.3 0-0.7 0-0.4 0-0.7 0.1-0.4 0.2-0.9 0.5-0.4 0.4-0.8 0.9-0.5 0.6-1 1.4v10.3q0 0.2-0.1 0.4-0.1 0.1-0.4 0.2-0.3 0.1-0.7 0.1-0.5 0.1-1.1 0.1-0.7 0-1.2-0.1-0.4 0-0.7-0.1-0.2-0.1-0.4-0.2-0.1-0.2-0.1-0.4v-16.5q0-0.2 0.1-0.4 0.1-0.1 0.3-0.2 0.3-0.1 0.7-0.1 0.4-0.1 0.9-0.1 0.6 0 1 0.1 0.4 0 0.6 0.1 0.2 0.1 0.3 0.2 0.1 0.2 0.1 0.4v2q0.7-0.9 1.2-1.5 0.6-0.6 1.1-1 0.5-0.3 1.1-0.5 0.5-0.1 1-0.1 0.2 0 0.5 0 0.3 0.1 0.6 0.1 0.3 0.1 0.5 0.2 0.2 0 0.3 0.1 0.1 0.1 0.2 0.2 0 0.2 0.1 0.4 0 0.1 0 0.5 0.1 0.4 0.1 1.1z"/>
		<path class="s0" d="m111 94.4q0 0.2 0 0.4-0.1 0.1-0.4 0.2-0.2 0.1-0.6 0.1-0.4 0.1-0.9 0.1-0.7 0-1-0.1-0.4 0-0.6-0.1-0.3-0.1-0.4-0.2 0-0.2 0-0.4v-1.9q-1.4 1.5-2.8 2.2-1.5 0.8-3 0.8-1.7 0-2.8-0.6-1.2-0.5-1.9-1.5-0.7-1-1-2.2-0.3-1.3-0.3-3.2v-10.1q0-0.2 0.1-0.4 0.1-0.1 0.3-0.2 0.3-0.1 0.7-0.1 0.5-0.1 1.2-0.1 0.7 0 1.1 0.1 0.4 0 0.7 0.1 0.3 0.1 0.4 0.2 0.1 0.2 0.1 0.4v9.3q0 1.3 0.2 2 0.1 0.7 0.5 1.2 0.3 0.5 0.9 0.8 0.5 0.2 1.2 0.2 0.9 0 1.8-0.6 0.9-0.7 1.9-1.9v-11q0-0.2 0.1-0.4 0.1-0.1 0.4-0.2 0.2-0.1 0.7-0.1 0.4-0.1 1.1-0.1 0.7 0 1.2 0.1 0.4 0 0.7 0.1 0.2 0.1 0.3 0.2 0.1 0.2 0.1 0.4z"/>
		<path class="s0" d="m125.9 89.8q0 1.4-0.6 2.4-0.5 1.1-1.5 1.8-0.9 0.8-2.2 1.1-1.4 0.4-2.9 0.4-0.9 0-1.8-0.1-0.8-0.2-1.5-0.4-0.6-0.2-1.1-0.4-0.4-0.3-0.6-0.4-0.2-0.2-0.4-0.7-0.1-0.4-0.1-1.2 0-0.5 0.1-0.9 0-0.3 0.1-0.5 0.1-0.2 0.2-0.2 0.1-0.1 0.2-0.1 0.3 0 0.6 0.2 0.5 0.3 1 0.5 0.6 0.3 1.4 0.6 0.8 0.2 1.8 0.2 0.7 0 1.1-0.1 0.5-0.2 0.9-0.4 0.4-0.2 0.5-0.6 0.2-0.4 0.2-0.9 0-0.5-0.3-0.9-0.4-0.4-0.9-0.7-0.6-0.3-1.3-0.6-0.7-0.2-1.5-0.6-0.7-0.3-1.4-0.7-0.8-0.4-1.3-1-0.6-0.6-0.9-1.4-0.4-0.8-0.4-2 0-1.2 0.5-2.2 0.5-1 1.3-1.7 0.9-0.7 2.2-1.1 1.2-0.4 2.8-0.4 0.7 0 1.5 0.1 0.7 0.1 1.3 0.3 0.6 0.2 1 0.4 0.4 0.2 0.6 0.3 0.2 0.1 0.2 0.3 0.1 0.1 0.2 0.3 0 0.2 0 0.5 0.1 0.3 0.1 0.7 0 0.5-0.1 0.8 0 0.4-0.1 0.5 0 0.2-0.1 0.3-0.2 0.1-0.3 0.1-0.2 0-0.5-0.2-0.4-0.2-0.9-0.5-0.5-0.2-1.2-0.4-0.7-0.2-1.6-0.2-0.6 0-1.1 0.2-0.5 0.1-0.8 0.3-0.3 0.3-0.4 0.6-0.2 0.3-0.2 0.7 0 0.6 0.4 1 0.3 0.4 0.9 0.7 0.6 0.2 1.3 0.5 0.7 0.3 1.5 0.6 0.8 0.3 1.5 0.7 0.7 0.4 1.3 1 0.6 0.6 0.9 1.4 0.4 0.8 0.4 2z"/>
		<path class="s0" d="m142.7 94.5q0 0.3-0.2 0.4-0.1 0.1-0.5 0.2-0.4 0.1-1.2 0.1-0.9 0-1.2-0.1-0.4-0.1-0.6-0.2-0.1-0.1-0.1-0.4v-1.3q-1.1 1.1-2.4 1.7-1.3 0.6-2.9 0.6-1.3 0-2.4-0.3-1.1-0.4-1.9-1.1-0.8-0.6-1.3-1.6-0.4-1-0.4-2.4 0-1.4 0.6-2.5 0.5-1.1 1.6-1.8 1.2-0.7 2.8-1 1.7-0.3 3.9-0.3h1.6v-1q0-0.8-0.1-1.4-0.2-0.6-0.5-1-0.4-0.4-1-0.6-0.6-0.1-1.5-0.1-1.2 0-2.1 0.2-0.9 0.3-1.6 0.6-0.7 0.3-1.2 0.6-0.5 0.2-0.8 0.2-0.2 0-0.3-0.1-0.2-0.1-0.3-0.4-0.1-0.2-0.1-0.6-0.1-0.3-0.1-0.7 0-0.6 0.1-1 0.1-0.3 0.4-0.6 0.2-0.2 0.9-0.6 0.6-0.3 1.5-0.6 0.9-0.2 1.9-0.4 1-0.2 2.1-0.2 2 0 3.3 0.4 1.4 0.4 2.3 1.2 0.9 0.8 1.3 2 0.4 1.3 0.4 3v11.1zm-4.6-7.1h-1.7q-1.2 0-2 0.2-0.8 0.1-1.3 0.5-0.5 0.3-0.7 0.8-0.2 0.4-0.2 1.1 0 1 0.6 1.6 0.7 0.6 1.8 0.6 1 0 1.9-0.5 0.8-0.5 1.6-1.5z"/>
		<path class="s0" d="m161.6 94.4q0 0.2-0.1 0.4-0.1 0.1-0.3 0.2-0.3 0.1-0.6 0.1-0.4 0.1-1 0.1-0.6 0-0.9-0.1-0.4 0-0.6-0.1-0.3-0.1-0.4-0.2-0.1-0.2-0.1-0.4v-1.8q-1.2 1.4-2.7 2.1-1.4 0.8-3.1 0.8-1.9 0-3.2-0.7-1.3-0.8-2.1-2-0.8-1.3-1.2-2.9-0.4-1.7-0.4-3.5 0-2.2 0.5-4 0.5-1.8 1.4-3 0.9-1.3 2.3-1.9 1.3-0.7 3.1-0.7 1.4 0 2.5 0.6 1.1 0.5 2.2 1.6v-8.9q0-0.2 0.1-0.4 0.1-0.1 0.4-0.2 0.3-0.1 0.7-0.2 0.5 0 1.2 0 0.6 0 1.1 0 0.4 0.1 0.7 0.2 0.3 0.1 0.4 0.2 0.1 0.2 0.1 0.4v24.3zm-4.7-11q-1-1.3-1.9-2-0.9-0.6-1.9-0.6-0.9 0-1.6 0.4-0.6 0.5-1 1.2-0.4 0.8-0.6 1.7-0.2 1-0.2 2 0 1 0.2 2 0.1 1 0.5 1.7 0.4 0.8 1 1.3 0.6 0.4 1.6 0.4 0.5 0 0.9-0.1 0.5-0.1 1-0.5 0.4-0.3 0.9-0.8 0.5-0.5 1.1-1.2v-5.5z"/>
		<path class="s0" d="m180 85.7q0 0.8-0.3 1.2-0.4 0.4-1.1 0.4h-10.1q0 1.1 0.3 2 0.2 0.8 0.8 1.4 0.5 0.6 1.4 0.9 0.9 0.4 2.1 0.4 1.2 0 2.1-0.2 0.9-0.2 1.6-0.4 0.7-0.2 1.1-0.4 0.5-0.2 0.8-0.2 0.1 0 0.2 0.1 0.2 0.1 0.2 0.2 0.1 0.2 0.1 0.5 0.1 0.3 0.1 0.8 0 0.4-0.1 0.7 0 0.3 0 0.5 0 0.2-0.1 0.3-0.1 0.2-0.2 0.3-0.1 0.1-0.7 0.3-0.5 0.3-1.4 0.5-0.8 0.2-1.9 0.3-1.1 0.2-2.3 0.2-2.2 0-3.8-0.6-1.7-0.5-2.8-1.6-1.1-1.2-1.7-2.9-0.5-1.7-0.5-4.1 0-2.2 0.6-3.9 0.5-1.8 1.6-3.1 1.1-1.2 2.7-1.8 1.6-0.7 3.5-0.7 2.1 0 3.6 0.6 1.5 0.6 2.4 1.7 0.9 1.1 1.4 2.6 0.4 1.5 0.4 3.2v0.8zm-4.5-1.4q0.1-1.9-0.8-3.1-0.8-1.1-2.6-1.1-0.9 0-1.5 0.3-0.7 0.4-1.1 0.9-0.5 0.6-0.7 1.4-0.2 0.8-0.3 1.6z"/>
		<path class="s0" d="m193 79.4q0 0.7 0 1.1-0.1 0.4-0.2 0.7 0 0.2-0.1 0.3-0.2 0.1-0.4 0.1-0.1 0-0.3-0.1-0.2 0-0.4-0.1-0.2-0.1-0.5-0.2-0.3 0-0.6 0-0.4 0-0.8 0.1-0.4 0.2-0.8 0.5-0.4 0.4-0.9 0.9-0.4 0.6-1 1.4v10.3q0 0.2-0.1 0.4-0.1 0.1-0.4 0.2-0.2 0.1-0.7 0.1-0.4 0.1-1.1 0.1-0.7 0-1.1-0.1-0.5 0-0.7-0.1-0.3-0.1-0.4-0.2-0.1-0.2-0.1-0.4v-16.5q0-0.2 0-0.4 0.1-0.1 0.4-0.2 0.2-0.1 0.6-0.1 0.4-0.1 1-0.1 0.6 0 0.9 0.1 0.4 0 0.6 0.1 0.3 0.1 0.3 0.2 0.1 0.2 0.1 0.4v2q0.7-0.9 1.3-1.5 0.5-0.6 1.1-1 0.5-0.3 1-0.5 0.5-0.1 1-0.1 0.3 0 0.6 0 0.2 0.1 0.5 0.1 0.3 0.1 0.5 0.2 0.3 0 0.4 0.1 0.1 0.1 0.1 0.2 0.1 0.2 0.1 0.4 0 0.1 0.1 0.5 0 0.4 0 1.1z"/>
		<path class="s0" d="m117 57.1q-3.3 1.3-6.6 1.6c-2.2 0.2-4.4 0.1-6.6-0.3l-1.6-0.3c-0.6-0.1-1.1-0.3-1.7-0.4q-0.8-0.2-1.6-0.5-0.8-0.3-1.6-0.6c-2.1-0.7-4.3-1.7-6.5-2.6-2.2-0.8-4.5-1.6-6.8-2.1q-0.9-0.2-1.8-0.4c-0.6-0.8-1.4-2.2-1.8-4.2l7.6 1c0 0 3.4-11.4 4.4-15 3-9.7 2.6-15.9 2.6-15.9 0 0 3.3 5.5 5.8 12.3 0 0 3.7 10.1 2.5 13.2 0 0-5.4 3.2-10.5 5.4l17.6-1c0 0-0.5 2.5-1.1 4.7q0.1 0 0.2 0.1 0.6 0.2 1.7 0.2 1 0.1 2.9 0.1 1.9 0 2.9-0.1 1.1-0.1 1.5-0.5 0.4-0.4 0.3-1.2-0.1-0.8-0.6-2.1c0 0-21.6-48.1-21.7-48-0.1 0.1-21.8 47.9-21.8 47.9q-0.4 1.3-0.5 2.1-0.1 0.7 0.2 1.1-2.4 0.4-4.6 1.2c4.7 0 9.2 0.4 13.5 2 2.2 0.7 4.3 1.6 6.4 2.6l3.2 1.5q1.7 0.7 3.4 1.3c2.3 0.8 4.6 1.5 7 1.8 2.5 0.2 4.9 0.2 7.4-0.3 2.4-0.6 4.7-1.6 6.9-3 2.1-1.4 4.1-3.1 5.6-5.3-2 1.6-4.1 2.8-6.2 3.7z"/>
		<path class="s0" d="m103.3 65.2q-2.2-0.1-4.3-0.5c-2.9-0.5-5.6-1.4-8.3-2.6q-1-0.5-2-1c-0.6-0.3-1.3-0.6-2-0.9-1.5-0.7-2.9-1.2-4.5-1.7q-2.2-0.6-4.6-0.7c-1.6-0.1-3.2 0-4.7 0.5 1.6 0.1 3 0.4 4.5 0.8 1.4 0.4 2.8 1 4.1 1.6q2 0.8 3.9 1.9c1.3 0.7 2.7 1.5 4.1 2.1 2.9 1.4 6 2.2 9.2 2.4 1.6 0 3.2-0.2 4.8-0.5q2.3-0.5 4.3-1.6c-1.5 0.1-3 0.2-4.5 0.2z"/>
	</g>
</svg>