<?xml version="1.0" encoding="UTF-8"?>
<svg version="1.1" xmlns="http://www.w3.org/2000/svg" width="864" height="258">
<path d="M0 0 C3.3023264 2.71228899 4.73818118 6.31598711 6.44921875 10.12109375 C6.77874039 10.84007843 7.10826202 11.55906311 7.44776917 12.29983521 C8.53442542 14.67604383 9.61107376 17.05664173 10.6875 19.4375 C11.44783214 21.1062253 12.20858047 22.77476103 12.96972656 24.44311523 C18.47331605 36.53018911 23.87336335 48.66314715 29.24362183 60.80993652 C34.79370703 73.3633784 40.50651986 85.83203751 46.328125 98.26171875 C53.77135049 114.19836027 53.77135049 114.19836027 54 119 C53.34 119.99 52.68 120.98 52 122 C49.84521484 122.34057617 49.84521484 122.34057617 47.2109375 122.29296875 C46.26992187 122.28330078 45.32890625 122.27363281 44.359375 122.26367188 C43.37453125 122.23853516 42.3896875 122.21339844 41.375 122.1875 C39.88613281 122.16719727 39.88613281 122.16719727 38.3671875 122.14648438 C35.91091928 122.11105743 33.45572715 122.06166196 31 122 C30 120 30 120 32 111 C12.2 111.99 12.2 111.99 -8 113 C-8 112.34 -8 111.68 -8 111 C-6.83082031 110.45730469 -5.66164062 109.91460937 -4.45703125 109.35546875 C-2.90878763 108.63295506 -1.36061424 107.91029087 0.1875 107.1875 C0.95642578 106.83107422 1.72535156 106.47464844 2.51757812 106.10742188 C5.75079029 104.59488915 8.86452527 103.08157424 11.92578125 101.23828125 C14 100 14 100 16 100 C16.56673667 80.29500207 6.94103956 61.06513134 -2 44 C-2.07476562 44.96035156 -2.14953125 45.92070313 -2.2265625 46.91015625 C-4.28705539 69.62362789 -12.13244137 91.37482093 -19 113 C-24.61 112.34 -30.22 111.68 -36 111 C-35.01 113.97 -34.02 116.94 -33 120 C-31.865625 120.04125 -30.73125 120.0825 -29.5625 120.125 C-20.23521276 121.16298965 -11.33524427 125.35065578 -2.625 128.66015625 C-1.56937866 129.06004761 -1.56937866 129.06004761 -0.49243164 129.46801758 C0.83077042 129.97154808 2.15207345 130.4801124 3.47094727 130.99487305 C17.83273689 136.50665393 33.47044506 137.95445775 48.02636719 132.19873047 C53.25239261 129.86937977 58.23709683 127.17526878 63 124 C60.26609803 132.13124451 53.30040339 136.55823512 45.9375 140.375 C32.78556898 146.83369864 17.39654374 146.80819425 3.50390625 142.671875 C-3.41535292 140.23189989 -10.08843965 137.12786909 -16.80310059 134.18133545 C-32.12489187 127.47269846 -46.38615601 124.46140294 -63 123 C-60.52263748 121.68088489 -58.66949961 120.93389992 -55.875 120.375 C-54.451875 119.694375 -54.451875 119.694375 -53 119 C-52.47735724 117.06764835 -51.96539784 115.13099577 -51.53668213 113.17565918 C-50.71992549 109.86460411 -49.30706372 106.91244547 -47.8671875 103.828125 C-47.55858292 103.16087906 -47.24997833 102.49363312 -46.93202209 101.8061676 C-46.26662825 100.36896854 -45.59818752 98.93317687 -44.92697144 97.49868774 C-43.10228014 93.59823872 -41.3004346 89.68723768 -39.49609375 85.77734375 C-39.12237137 84.96895554 -38.74864899 84.16056732 -38.36360168 83.3276825 C-34.80100711 75.60590633 -31.35573028 67.83422713 -27.92547607 60.05297852 C-22.33953328 47.38548063 -16.63578942 34.78119453 -10.75 22.25 C-10.43521698 21.57941559 -10.12043396 20.90883118 -9.79611206 20.21792603 C-6.60977196 13.43842757 -3.39049154 6.68027541 0 0 Z " fill="#00B6FF" transform="translate(85,30)"/>
<path d="M0 0 C1.08667969 0.0009668 1.08667969 0.0009668 2.1953125 0.00195312 C5.38339447 0.02842244 7.95665629 0.1730521 11 1.1875 C11.89697266 2.81835937 11.89697266 2.81835937 12.6640625 5.03125 C13.12824585 6.34174316 13.12824585 6.34174316 13.60180664 7.67871094 C13.93946045 8.67161133 14.27711426 9.66451172 14.625 10.6875 C14.99036865 11.73454102 15.3557373 12.78158203 15.73217773 13.86035156 C16.61292911 16.38906661 17.48852848 18.91922573 18.35986328 21.45117188 C19.95448736 26.07226086 21.58188432 30.68155246 23.21044922 35.29077148 C24.77382998 39.71881564 26.32946927 44.14955735 27.88372803 48.58081055 C28.66938373 50.81805599 29.45718452 53.0545493 30.24713135 55.2902832 C31.37164321 58.4773538 32.4858574 61.66785084 33.59765625 64.859375 C33.94098495 65.82619202 34.28431366 66.79300903 34.63804626 67.78912354 C34.94964188 68.68983582 35.26123749 69.5905481 35.58227539 70.51855469 C35.85713272 71.30252625 36.13199005 72.0864978 36.41517639 72.89422607 C37.06054785 75.42492682 37.17312838 77.58590654 37 80.1875 C35.00695963 82.18054037 31.33759808 81.50703796 28.625 81.5625 C27.59632813 81.61857422 27.59632813 81.61857422 26.546875 81.67578125 C24.5390625 81.7109375 24.5390625 81.7109375 21 81.1875 C18 76.1875 18 76.1875 14 64.1875 C4.43 63.8575 -5.14 63.5275 -15 63.1875 C-15.99 66.8175 -16.98 70.4475 -18 74.1875 C-18.94886509 76.54209115 -19.92646675 78.8870716 -21 81.1875 C-23.31243792 81.21435412 -25.6249627 81.23382841 -27.9375 81.25 C-29.22527344 81.26160156 -30.51304687 81.27320312 -31.83984375 81.28515625 C-35 81.1875 -35 81.1875 -36 80.1875 C-35.5639634 73.70706204 -33.81790183 68.03917034 -31.68359375 61.93359375 C-31.34884537 60.95624771 -31.01409698 59.97890167 -30.66920471 58.97193909 C-29.59922691 55.85374064 -28.51854167 52.7393777 -27.4375 49.625 C-26.73822877 47.59203873 -26.03965549 45.55883724 -25.34179688 43.52539062 C-23.94723554 39.46555378 -22.5430058 35.40924201 -21.13232422 31.35498047 C-19.65850801 27.11287033 -18.21665236 22.86140193 -16.79345703 18.60205078 C-16.43542496 17.54212418 -16.07739288 16.48219757 -15.70851135 15.39015198 C-15.02382221 13.36225431 -14.34697949 11.33168579 -13.67906189 9.29820251 C-13.37126297 8.39292313 -13.06346405 7.48764374 -12.74633789 6.55493164 C-12.48059464 5.75736954 -12.21485138 4.95980743 -11.9410553 4.13807678 C-9.514804 -0.89094698 -4.78944387 -0.08096035 0 0 Z M-1 18.1875 C-5.95 33.5325 -5.95 33.5325 -11 49.1875 C-4.07 49.1875 2.86 49.1875 10 49.1875 C8.76068576 45.09215293 7.51766201 40.99834483 6.26464844 36.90722656 C5.83952114 35.5150158 5.41665443 34.12211267 4.99609375 32.72851562 C4.39134587 30.72600143 3.77852368 28.72611439 3.1640625 26.7265625 C2.79748535 25.52209473 2.4309082 24.31762695 2.05322266 23.07666016 C1.2009557 20.10701567 1.2009557 20.10701567 -1 18.1875 Z " fill="#00B6FF" transform="translate(218,34.8125)"/>
<path d="M0 0 C1.1653125 -0.01417969 2.330625 -0.02835938 3.53125 -0.04296875 C6.5 0.1875 6.5 0.1875 8.5 2.1875 C8.698396 4.79673405 8.77275976 7.29982527 8.75878906 9.91015625 C8.7622937 10.7070285 8.76579834 11.50390076 8.76940918 12.32492065 C8.77823278 14.96670162 8.77237518 17.60821617 8.765625 20.25 C8.76697147 22.08081107 8.76891185 23.9116218 8.77142334 25.74243164 C8.77437545 29.5825541 8.77007417 33.42258363 8.76074219 37.26269531 C8.7493476 42.19268694 8.7559066 47.12246083 8.76788712 52.05244446 C8.77510337 55.83387909 8.77281887 59.61526183 8.76763153 63.396698 C8.76629438 65.21483384 8.76794502 67.03297434 8.77259064 68.85110474 C8.77765204 71.38914526 8.76995123 73.92682984 8.75878906 76.46484375 C8.76283752 77.22127167 8.76688599 77.97769958 8.77105713 78.75704956 C8.72852861 83.95897139 8.72852861 83.95897139 6.5 86.1875 C3.96875 86.453125 3.96875 86.453125 1 86.4375 C0.0203125 86.44265625 -0.959375 86.4478125 -1.96875 86.453125 C-4.5 86.1875 -4.5 86.1875 -6.5 84.1875 C-6.5 82.8675 -6.5 81.5475 -6.5 80.1875 C-7.42232422 80.81978516 -7.42232422 80.81978516 -8.36328125 81.46484375 C-9.17152344 82.01269531 -9.97976563 82.56054688 -10.8125 83.125 C-12.01326172 83.94291016 -12.01326172 83.94291016 -13.23828125 84.77734375 C-18.79730653 88.24333361 -25.16950354 87.84677064 -31.5 87.1875 C-36.89990083 85.19580367 -41.65874955 81.21349984 -44.5 76.1875 C-49.03602858 65.74366 -49.47215376 51.12904466 -45.53515625 40.3984375 C-42.61677065 34.16520637 -39.5064225 28.51921739 -32.90234375 25.78125 C-27.79783256 24.51964723 -22.66435975 24.21616598 -17.5 25.1875 C-14.86 26.8375 -12.22 28.4875 -9.5 30.1875 C-9.17 20.6175 -8.84 11.0475 -8.5 1.1875 C-5.65161879 -0.2366906 -3.17212092 0.01754492 0 0 Z M-27.4375 42 C-31.77597561 48.70491685 -31.06730009 56.47221879 -30.5 64.1875 C-29.53429707 67.46448246 -28.47115964 69.3467111 -26.5 72.1875 C-23.2374887 73.81875565 -20.0120384 73.87601113 -16.5 73.1875 C-13.1741591 71.124717 -10.26497532 68.71745064 -8.5 65.1875 C-7.60480372 58.26313409 -6.64378462 49.65886382 -10.00390625 43.375 C-13.18250572 40.38923141 -16.33749635 38.82242895 -20.6875 38.375 C-24.44286442 39.17532357 -25.09623208 39.32234301 -27.4375 42 Z " fill="#00B6FF" transform="translate(333.5,29.8125)"/>
<path d="M0 0 C1.16273438 -0.02578125 2.32546875 -0.0515625 3.5234375 -0.078125 C6.625 0.25 6.625 0.25 8.30230713 1.27975464 C10.36494525 4.35220122 9.97748256 7.53294089 9.88964844 11.10205078 C9.88193924 11.90067535 9.87423004 12.69929993 9.86628723 13.52212524 C9.83699624 16.16360512 9.78596764 18.80418148 9.734375 21.4453125 C9.70888036 23.27707336 9.68458369 25.10885126 9.66143799 26.94064331 C9.6098565 30.77915641 9.54834407 34.61733363 9.47900391 38.45556641 C9.39006677 43.38653481 9.31865239 48.31755086 9.25371933 53.24888802 C9.19108382 57.9394615 9.11910667 62.62987885 9.046875 67.3203125 C9.03392143 68.22107639 9.02096786 69.12184029 9.00762177 70.04990005 C8.96959907 72.58563447 8.9248659 75.1211552 8.87792969 77.65673828 C8.86746109 78.41519043 8.85699249 79.17364258 8.84620667 79.95507812 C8.73970455 85.13529545 8.73970455 85.13529545 7.625 86.25 C5.62700428 86.34873816 3.62542842 86.37971799 1.625 86.375 C0.531875 86.37757812 -0.56125 86.38015625 -1.6875 86.3828125 C-4.375 86.25 -4.375 86.25 -5.375 85.25 C-5.41563832 83.58382885 -5.417721 81.91611905 -5.375 80.25 C-6.055625 80.848125 -6.73625 81.44625 -7.4375 82.0625 C-14.79068405 87.53827536 -21.31981145 88.22500174 -30.375 87.25 C-36.0504848 85.78506155 -39.84492311 82.50858663 -43.12109375 77.71484375 C-48.8443357 66.46448341 -48.50596607 53.18345353 -45.375 41.25 C-42.97494956 34.26693868 -38.74671754 30.01558653 -32.578125 26.11328125 C-29.54425889 24.9244791 -26.87747773 24.87286258 -23.625 24.8125 C-22.45453125 24.77253906 -21.2840625 24.73257813 -20.078125 24.69140625 C-15.30826615 25.41091027 -12.23455767 27.46625306 -8.375 30.25 C-8.33741577 28.94011108 -8.33741577 28.94011108 -8.29907227 27.60375977 C-8.20412291 24.37397448 -8.10487971 21.14435846 -8.00268555 17.91479492 C-7.95928566 16.51510801 -7.91761436 15.11536641 -7.87768555 13.71557617 C-7.82010555 11.70738505 -7.75586 9.69938851 -7.69140625 7.69140625 C-7.65474854 6.48170166 -7.61809082 5.27199707 -7.58032227 4.02563477 C-7.20365691 -1.06628959 -4.55660564 0.06035239 0 0 Z M-26.1875 41.125 C-30.58639138 47.40913055 -30.84425833 54.47271978 -29.859375 61.91796875 C-28.9504567 66.29397055 -27.58794336 70.03705664 -24.375 73.25 C-20.08781183 73.91525334 -17.75320241 74.1798715 -14.10546875 71.71875 C-12.10922474 69.963494 -10.21705383 68.16555224 -8.375 66.25 C-8.045 65.92 -7.715 65.59 -7.375 65.25 C-6.15275605 54.57680878 -6.15275605 54.57680878 -8.8671875 44.53515625 C-12.18877739 41.27558775 -15.02167699 39.40320638 -19.6875 38.875 C-23.42147499 38.96432985 -23.42147499 38.96432985 -26.1875 41.125 Z " fill="#00B6FF" transform="translate(703.375,29.75)"/>
<path d="M0 0 C7.38559144 -0.36809218 16.82919957 0.81911698 22.66796875 5.6953125 C25.63718365 9.39957734 25.99841313 12.39725302 25.4921875 17.00390625 C25.296112 18.40151416 25.091816 19.79810244 24.8671875 21.19140625 C23.12109375 21.83984375 23.12109375 21.83984375 20.8671875 22.19140625 C18.83203125 21.23046875 18.83203125 21.23046875 16.8046875 19.81640625 C10.76149779 15.66388818 5.07470255 15.48684071 -2.1328125 16.19140625 C-5.90862321 17.64419437 -7.88402647 19.8182272 -10.1328125 23.19140625 C-10.7928125 23.19140625 -11.4528125 23.19140625 -12.1328125 23.19140625 C-15.32097257 34.95723508 -16.40026627 45.36179261 -13.1328125 57.19140625 C-12.79730185 58.52419337 -12.46334251 59.85737522 -12.1328125 61.19140625 C-11.4728125 61.19140625 -10.8128125 61.19140625 -10.1328125 61.19140625 C-9.4109375 61.97515625 -8.6890625 62.75890625 -7.9453125 63.56640625 C-4.22933944 67.03464777 -1.1204521 68.09682548 3.96484375 68.2578125 C9.60531484 67.92953111 13.7590375 65.97747759 18.60546875 63.15234375 C21.20911139 62.04613289 22.26875612 62.20435909 24.8671875 63.19140625 C25.83380113 66.31321026 25.85707659 68.7122442 25.4296875 71.94140625 C25.27693359 73.14023438 25.27693359 73.14023438 25.12109375 74.36328125 C25.03730469 74.9665625 24.95351563 75.56984375 24.8671875 76.19140625 C24.2071875 76.19140625 23.5471875 76.19140625 22.8671875 76.19140625 C22.8671875 76.85140625 22.8671875 77.51140625 22.8671875 78.19140625 C21.47440733 78.84379783 20.07779538 79.48801177 18.6796875 80.12890625 C17.51373047 80.66837891 17.51373047 80.66837891 16.32421875 81.21875 C6.77706378 84.99814839 -6.27935152 84.61203007 -15.66796875 80.57421875 C-25.19420384 75.22986499 -30.47644523 67.58244168 -33.4453125 57.19140625 C-36.10845806 42.77457018 -34.96951545 26.89018319 -26.859375 14.4453125 C-21.19876018 7.05577686 -14.16767195 2.73222143 -5.1953125 0.44140625 C-3.46306459 0.29999826 -1.73105319 0.15535093 0 0 Z " fill="#00B6FF" transform="translate(415.1328125,33.80859375)"/>
<path d="M0 0 C1.26714844 -0.01417969 2.53429687 -0.02835938 3.83984375 -0.04296875 C7.0625 0.1875 7.0625 0.1875 9.0625 2.1875 C9.20125072 4.99894833 9.22116044 7.71160314 9.15234375 10.51953125 C9.13191455 12.22200226 9.11174031 13.92447635 9.09179688 15.62695312 C9.04835813 18.31303822 9.0000217 20.99892022 8.94604492 23.68481445 C8.89764899 26.27554662 8.86784724 28.86601001 8.83984375 31.45703125 C8.81808578 32.25615433 8.79632782 33.0552774 8.77391052 33.87861633 C8.73333555 38.45686187 9.00060357 41.51756112 12.0625 45.1875 C15.33056182 46.53615373 15.33056182 46.53615373 19.0625 46.1875 C22.40524388 44.50291564 25.36578657 42.58092686 27.0625 39.1875 C27.20745126 36.35702777 27.2967288 33.54726058 27.34375 30.71484375 C27.36215942 29.87659561 27.38056885 29.03834747 27.39953613 28.17469788 C27.47837464 24.57940678 27.54610156 20.98392564 27.61474609 17.38842773 C27.66634578 14.76796838 27.72363706 12.14767664 27.78125 9.52734375 C27.79482544 8.70757553 27.80840088 7.88780731 27.8223877 7.04319763 C27.94967394 1.30032606 27.94967394 1.30032606 29.0625 0.1875 C31.59299402 0.11436433 34.09554837 0.09502473 36.625 0.125 C37.69137695 0.13176758 37.69137695 0.13176758 38.77929688 0.13867188 C40.54040013 0.15049136 42.30146036 0.16842737 44.0625 0.1875 C45.35396455 2.77042911 45.18955706 4.63136243 45.19189453 7.5234375 C45.19504669 8.63799316 45.19819885 9.75254883 45.20144653 10.90087891 C45.1994223 12.10921387 45.19739807 13.31754883 45.1953125 14.5625 C45.19626923 15.79790527 45.19722595 17.03331055 45.19821167 18.30615234 C45.19906804 21.59336084 45.19503344 24.88052236 45.18945312 28.16772461 C45.18750203 30.18539941 45.18944592 32.20303072 45.19287109 34.22070312 C45.19902992 38.08465613 45.19830484 41.94854435 45.1953125 45.8125 C45.19733673 47.02083496 45.19936096 48.22916992 45.20144653 49.47412109 C45.19671829 51.14595459 45.19671829 51.14595459 45.19189453 52.8515625 C45.19109894 53.83592285 45.19030334 54.8202832 45.18948364 55.83447266 C45.0625 58.1875 45.0625 58.1875 44.0625 60.1875 C42.10424127 60.21444851 40.14587774 60.23387218 38.1875 60.25 C36.55167969 60.26740234 36.55167969 60.26740234 34.8828125 60.28515625 C32.0625 60.1875 32.0625 60.1875 30.0625 59.1875 C30.0625 57.5375 30.0625 55.8875 30.0625 54.1875 C29.381875 54.785625 28.70125 55.38375 28 56 C20.67639586 61.45374776 14.09182926 62.21226625 5.0625 61.1875 C0.15842876 59.60663821 -3.17192108 56.48951166 -5.9375 52.1875 C-8.30608387 46.72899804 -8.21212438 41.63212494 -8.16796875 35.79296875 C-8.16751053 34.80500809 -8.16705231 33.81704742 -8.1665802 32.79914856 C-8.16356925 30.72066032 -8.15571778 28.6421741 -8.14331055 26.5637207 C-8.12496309 23.36857196 -8.12280164 20.17371175 -8.12304688 16.97851562 C-8.11813475 14.95833081 -8.11230777 12.93814796 -8.10546875 10.91796875 C-8.10435593 9.95763229 -8.1032431 8.99729584 -8.10209656 8.00785828 C-8.09571671 7.12636612 -8.08933685 6.24487396 -8.08276367 5.33666992 C-8.07895187 4.5575676 -8.07514008 3.77846527 -8.07121277 2.97575378 C-7.74761906 -1.35193818 -3.42843399 0.01740322 0 0 Z " fill="#00B6FF" transform="translate(501.9375,55.8125)"/>
<path d="M0 0 C5.67537472 3.96230078 7.09406172 6.84386613 8.30926514 13.44134521 C8.90657168 17.68425201 8.94287116 21.85099034 8.890625 26.12890625 C8.8877951 27.02479462 8.88496521 27.92068298 8.88204956 28.84371948 C8.8709809 31.66548839 8.8459026 34.48692308 8.8203125 37.30859375 C8.81026544 39.23827662 8.80114264 41.16796454 8.79296875 43.09765625 C8.77108544 47.79309475 8.73665002 52.48828787 8.6953125 57.18359375 C5.97508172 58.54370914 3.7291244 58.38983685 0.6953125 58.43359375 C-0.3771875 58.459375 -1.4496875 58.48515625 -2.5546875 58.51171875 C-3.4621875 58.4034375 -4.3696875 58.29515625 -5.3046875 58.18359375 C-5.9646875 57.19359375 -6.6246875 56.20359375 -7.3046875 55.18359375 C-8.3359375 55.84359375 -9.3671875 56.50359375 -10.4296875 57.18359375 C-16.96769503 60.44096405 -24.88331265 60.45558928 -31.84375 58.453125 C-36.7366713 56.20824538 -39.87992584 53.03311706 -42.3046875 48.18359375 C-43.32274794 36.25059026 -43.32274794 36.25059026 -40.9296875 31.18359375 C-36.00286574 25.55294032 -29.6504728 23.05156589 -22.3046875 22.18359375 C-19.84714609 22.11781373 -17.38799972 22.09790213 -14.9296875 22.12109375 C-13.06183594 22.13462891 -13.06183594 22.13462891 -11.15625 22.1484375 C-9.74472656 22.16583984 -9.74472656 22.16583984 -8.3046875 22.18359375 C-8.84351156 15.63748575 -8.84351156 15.63748575 -12.3046875 10.49609375 C-19.69469267 9.72630154 -25.67645509 10.89243541 -32.19921875 14.44140625 C-34.3046875 15.18359375 -34.3046875 15.18359375 -39.3046875 14.18359375 C-39.3046875 10.55359375 -39.3046875 6.92359375 -39.3046875 3.18359375 C-27.64122833 -2.8016024 -12.39645211 -7.02465619 0 0 Z M-25.3046875 36.18359375 C-26.28109564 38.83003329 -26.43347258 41.37373744 -26.3046875 44.18359375 C-25.53629911 46.3688916 -25.53629911 46.3688916 -23.3046875 47.18359375 C-18.32958981 47.7545066 -16.26743734 47.72623457 -11.8671875 45.24609375 C-10.0296371 43.77755873 -10.0296371 43.77755873 -8.3046875 42.18359375 C-8.23288786 40.66431337 -8.22076743 39.14191893 -8.2421875 37.62109375 C-8.25121094 36.79480469 -8.26023437 35.96851563 -8.26953125 35.1171875 C-8.28113281 34.47910156 -8.29273438 33.84101562 -8.3046875 33.18359375 C-10.38737343 33.10233288 -12.47097408 33.04428536 -14.5546875 32.99609375 C-15.71484375 32.96128906 -16.875 32.92648438 -18.0703125 32.890625 C-21.57965877 33.20850057 -22.9095083 33.63978767 -25.3046875 36.18359375 Z " fill="#00B6FF" transform="translate(642.3046875,57.81640625)"/>
<path d="M0 0 C6.13216474 3.39226135 9.45670879 8.81635338 11.6875 15.3125 C13.05154801 20.54947005 13.76251754 26.13519507 12.8125 31.5 C9.07245683 33.99336211 6.18688391 33.75481228 1.86328125 33.6953125 C0.70435616 33.69106766 0.70435616 33.69106766 -0.47798157 33.68673706 C-2.94381243 33.67554878 -5.40927906 33.65044703 -7.875 33.625 C-9.54752079 33.61496843 -11.22004728 33.60584289 -12.89257812 33.59765625 C-16.99102559 33.57561392 -21.08920106 33.54109363 -25.1875 33.5 C-24.78125194 35.11632862 -24.35399421 36.72738614 -23.91796875 38.3359375 C-23.68231201 39.2336084 -23.44665527 40.1312793 -23.20385742 41.05615234 C-22.04704519 43.83772583 -21.09622102 44.67926522 -18.5 46.125 C-11.13928633 48.94883743 -5.06187613 47.42599891 2.19921875 45.15625 C4.84532013 44.49175817 7.0968328 44.38256574 9.8125 44.5 C11.13558269 53.32055128 11.13558269 53.32055128 9.8125 56.5 C8.10546875 57.51171875 8.10546875 57.51171875 6 58.1875 C4.96939453 58.53361328 4.96939453 58.53361328 3.91796875 58.88671875 C-6.26372411 61.85244376 -20.55713769 62.76088095 -30.2109375 57.8828125 C-36.20256903 53.69103866 -39.98512379 48.58782474 -41.75390625 41.46875 C-43.43766104 29.94033886 -43.2385162 18.08412188 -36.5 8.1875 C-28.03619269 -2.26530203 -12.35621277 -4.81108113 0 0 Z M-22.4375 13.6875 C-24.73203337 16.95408819 -24.73203337 16.95408819 -25.1875 23.5 C-18.2575 23.5 -11.3275 23.5 -4.1875 23.5 C-3.56588452 16.82256097 -3.56588452 16.82256097 -6.3125 13.125 C-11.83404501 8.08358934 -17.18396695 8.57989843 -22.4375 13.6875 Z " fill="#00B6FF" transform="translate(760.1875,56.5)"/>
<path d="M0 0 C0.68191406 -0.01611328 1.36382813 -0.03222656 2.06640625 -0.04882812 C7.11966954 -0.05364076 10.63307465 0.97647366 15.125 3.3125 C17.125 5.5625 17.125 5.5625 18.125 8.3125 C17.8125 12.125 17.8125 12.125 17.125 15.3125 C14.125 16.3125 14.125 16.3125 11.1875 14.875 C6.08366598 12.4550787 0.64317952 13.06785165 -4.875 13.3125 C-5.205 15.6225 -5.535 17.9325 -5.875 20.3125 C-5.215 20.3125 -4.555 20.3125 -3.875 20.3125 C-3.875 20.9725 -3.875 21.6325 -3.875 22.3125 C-3.25753906 22.47105469 -2.64007812 22.62960938 -2.00390625 22.79296875 C6.73453074 25.20036159 15.26258104 28.25911861 20.125 36.3125 C21.81308441 42.68501864 21.42953849 47.50107025 18.125 53.3125 C15.44277229 57.92593166 12.1288489 59.80237859 7.2421875 61.5859375 C-1.64574088 63.6575599 -11.6960333 63.56556268 -19.875 59.3125 C-21.875 57.3125 -21.875 57.3125 -22.0703125 54.7109375 C-22.04710937 53.71320313 -22.02390625 52.71546875 -22 51.6875 C-21.98195313 50.68460938 -21.96390625 49.68171875 -21.9453125 48.6484375 C-21.92210937 47.87757812 -21.89890625 47.10671875 -21.875 46.3125 C-19.45128137 45.44649716 -18.27705404 45.15951959 -15.83203125 46.08984375 C-14.77048828 46.66412109 -14.77048828 46.66412109 -13.6875 47.25 C-9.07854765 49.45163178 -4.94386692 50.1878465 0.125 49.3125 C3.32497155 47.6716054 3.32497155 47.6716054 3.6875 44.9375 C3.35297828 42.09325286 3.35297828 42.09325286 0.75 40.25 C-1.98893023 38.6247719 -4.83159134 37.54339436 -7.8125 36.4375 C-13.54472302 34.23279884 -17.97200595 31.29109939 -21.3125 26.0625 C-22.44201373 20.54043288 -22.57148666 15.36326628 -20.75 10 C-15.33159893 2.23362513 -9.1147597 -0.04259234 0 0 Z " fill="#00B6FF" transform="translate(574.875,54.6875)"/>
<path d="M0 0 C1.28583984 0.00966797 1.28583984 0.00966797 2.59765625 0.01953125 C4.9375 0.1875 4.9375 0.1875 7.9375 1.1875 C8.1345602 2.74882309 8.31970155 4.31165264 8.5 5.875 C8.65662109 7.18017578 8.65662109 7.18017578 8.81640625 8.51171875 C8.9406957 11.25811475 8.58502598 13.52544873 7.9375 16.1875 C7.20144531 16.12949219 6.46539063 16.07148437 5.70703125 16.01171875 C-0.65371552 15.6084781 -0.65371552 15.6084781 -6.125 18.5 C-9.65702298 23.39925768 -10.38784193 26.42623494 -10.4765625 32.35546875 C-10.49592865 33.15028152 -10.5152948 33.9450943 -10.5352478 34.76399231 C-10.59499442 37.30088595 -10.64140883 39.83782509 -10.6875 42.375 C-10.72568435 44.09572284 -10.76473635 45.81642665 -10.8046875 47.53710938 C-10.90069179 51.75375165 -10.98474076 55.9704834 -11.0625 60.1875 C-14.04933407 61.68091703 -16.80649774 61.31925178 -20.125 61.3125 C-21.39472656 61.31507812 -22.66445313 61.31765625 -23.97265625 61.3203125 C-27.0625 61.1875 -27.0625 61.1875 -28.0625 60.1875 C-28.16149561 58.38240627 -28.19049151 56.57343072 -28.19189453 54.765625 C-28.19504669 53.60772461 -28.19819885 52.44982422 -28.20144653 51.25683594 C-28.1994223 49.99645508 -28.19739807 48.73607422 -28.1953125 47.4375 C-28.19674759 45.51212402 -28.19674759 45.51212402 -28.19821167 43.54785156 C-28.19968831 40.82746176 -28.19753519 38.10710475 -28.19287109 35.38671875 C-28.18717381 31.89265331 -28.19045299 28.39866467 -28.19644356 24.90460205 C-28.20091754 21.58222847 -28.19778885 18.25987577 -28.1953125 14.9375 C-28.19733673 13.67711914 -28.19936096 12.41673828 -28.20144653 11.11816406 C-28.19829437 9.96026367 -28.19514221 8.80236328 -28.19189453 7.609375 C-28.19070114 6.07168457 -28.19070114 6.07168457 -28.18948364 4.50292969 C-28.0625 2.1875 -28.0625 2.1875 -27.0625 1.1875 C-24.87610547 1.11491054 -22.68749611 1.10376217 -20.5 1.125 C-18.70369141 1.13853516 -18.70369141 1.13853516 -16.87109375 1.15234375 C-15.94425781 1.16394531 -15.01742187 1.17554688 -14.0625 1.1875 C-13.7325 3.1675 -13.4025 5.1475 -13.0625 7.1875 C-12.485 6.40375 -11.9075 5.62 -11.3125 4.8125 C-7.87086658 0.79726101 -5.2319526 -0.08680464 0 0 Z " fill="#00B6FF" transform="translate(807.0625,54.8125)"/>
<path d="M0 0 C1.31291016 -0.03867187 1.31291016 -0.03867187 2.65234375 -0.078125 C5.0625 0.25 5.0625 0.25 6.86328125 1.3828125 C8.59600064 4.08066224 8.38898797 6.20074906 8.3125 9.375 C8.29703125 10.45007813 8.2815625 11.52515625 8.265625 12.6328125 C8.0625 15.25 8.0625 15.25 7.0625 16.25 C4.57095413 16.24092333 2.09373829 16.11715229 -0.39453125 15.9921875 C-3.43209407 16.30014318 -4.62580407 17.33445153 -6.9375 19.25 C-7.5975 19.25 -8.2575 19.25 -8.9375 19.25 C-11.11141436 23.61223965 -11.15550965 27.5602996 -11.02734375 32.32421875 C-11.00693952 33.89387734 -10.98676395 35.46353891 -10.96679688 37.03320312 C-10.92314594 39.49565817 -10.87455654 41.95790535 -10.82104492 44.42016602 C-10.77293904 46.80484307 -10.74296949 49.18923506 -10.71484375 51.57421875 C-10.69308578 52.31379318 -10.67132782 53.05336761 -10.64891052 53.81535339 C-10.62866211 55.8894043 -10.62866211 55.8894043 -10.9375 59.25 C-14.5450503 61.65503353 -16.28586389 61.4896541 -20.5625 61.4375 C-21.73039062 61.43105469 -22.89828125 61.42460938 -24.1015625 61.41796875 C-26.9375 61.25 -26.9375 61.25 -27.9375 60.25 C-28.03649561 58.44490627 -28.06549151 56.63593072 -28.06689453 54.828125 C-28.07004669 53.67022461 -28.07319885 52.51232422 -28.07644653 51.31933594 C-28.0744223 50.05895508 -28.07239807 48.79857422 -28.0703125 47.5 C-28.07174759 45.57462402 -28.07174759 45.57462402 -28.07321167 43.61035156 C-28.07468831 40.88996176 -28.07253519 38.16960475 -28.06787109 35.44921875 C-28.06217381 31.95515331 -28.06545299 28.46116467 -28.07144356 24.96710205 C-28.07591754 21.64472847 -28.07278885 18.32237577 -28.0703125 15 C-28.07233673 13.73961914 -28.07436096 12.47923828 -28.07644653 11.18066406 C-28.07329437 10.02276367 -28.07014221 8.86486328 -28.06689453 7.671875 C-28.06570114 6.13418457 -28.06570114 6.13418457 -28.06448364 4.56542969 C-27.9375 2.25 -27.9375 2.25 -26.9375 1.25 C-24.91785801 1.17755947 -22.89582876 1.16622812 -20.875 1.1875 C-19.21791016 1.20103516 -19.21791016 1.20103516 -17.52734375 1.21484375 C-16.67269531 1.22644531 -15.81804687 1.23804688 -14.9375 1.25 C-14.2775 2.9 -13.6175 4.55 -12.9375 6.25 C-11.98875 5.445625 -11.04 4.64125 -10.0625 3.8125 C-6.6212517 0.89491992 -4.55501737 0.08026462 0 0 Z " fill="#00B6FF" transform="translate(477.9375,54.75)"/>
<path d="M0 0 C1.27875 0.00257812 2.5575 0.00515625 3.875 0.0078125 C5.15375 0.00523438 6.4325 0.00265625 7.75 0 C10.875 0.1328125 10.875 0.1328125 11.875 1.1328125 C11.97399561 2.93790623 12.00299151 4.74688178 12.00439453 6.5546875 C12.00754669 7.71258789 12.01069885 8.87048828 12.01394653 10.06347656 C12.0119223 11.32385742 12.00989807 12.58423828 12.0078125 13.8828125 C12.00924759 15.80818848 12.00924759 15.80818848 12.01071167 17.77246094 C12.01218831 20.49285074 12.01003519 23.21320775 12.00537109 25.93359375 C11.99967381 29.42765919 12.00295299 32.92164783 12.00894356 36.41571045 C12.01341754 39.73808403 12.01028885 43.06043673 12.0078125 46.3828125 C12.00983673 47.64319336 12.01186096 48.90357422 12.01394653 50.20214844 C12.01079437 51.36004883 12.00764221 52.51794922 12.00439453 53.7109375 C12.00359894 54.73606445 12.00280334 55.76119141 12.00198364 56.81738281 C11.875 59.1328125 11.875 59.1328125 10.875 60.1328125 C8.54339945 60.23190552 6.20870058 60.26251754 3.875 60.2578125 C2.59625 60.26039062 1.3175 60.26296875 0 60.265625 C-3.125 60.1328125 -3.125 60.1328125 -4.125 59.1328125 C-4.22399561 57.32771877 -4.25299151 55.51874322 -4.25439453 53.7109375 C-4.25754669 52.55303711 -4.26069885 51.39513672 -4.26394653 50.20214844 C-4.2619223 48.94176758 -4.25989807 47.68138672 -4.2578125 46.3828125 C-4.25924759 44.45743652 -4.25924759 44.45743652 -4.26071167 42.49316406 C-4.26218831 39.77277426 -4.26003519 37.05241725 -4.25537109 34.33203125 C-4.24967381 30.83796581 -4.25295299 27.34397717 -4.25894356 23.84991455 C-4.26341754 20.52754097 -4.26028885 17.20518827 -4.2578125 13.8828125 C-4.25983673 12.62243164 -4.26186096 11.36205078 -4.26394653 10.06347656 C-4.26079437 8.90557617 -4.25764221 7.74767578 -4.25439453 6.5546875 C-4.25320114 5.01699707 -4.25320114 5.01699707 -4.25198364 3.44824219 C-4.05578493 -0.12926058 -3.6671105 0.1558522 0 0 Z " fill="#00B6FF" transform="translate(265.125,55.8671875)"/>
<path d="M0 0 C13 0 13 0 18 3 C19.40067554 6.87879379 19.08017054 10.91130264 19 15 C18.34 15 17.68 15 17 15 C17 15.99 17 16.98 17 18 C16.34 18.66 15.68 19.32 15 20 C15.62279669 21.58420129 16.24833401 23.16732531 16.875 24.75 C17.22304688 25.63171875 17.57109375 26.5134375 17.9296875 27.421875 C18.8646709 29.6740248 19.87780794 31.83649459 21 34 C20 35 20 35 16.9375 35.0625 C15.968125 35.041875 14.99875 35.02125 14 35 C13.18501438 33.3970947 12.37310073 31.79262722 11.5625 30.1875 C11.11003906 29.29417969 10.65757812 28.40085938 10.19140625 27.48046875 C9 25 9 25 8 22 C7.67 26.29 7.34 30.58 7 35 C4.69 35 2.38 35 0 35 C0 23.45 0 11.9 0 0 Z M7 5 C7 8.63 7 12.26 7 16 C10.74275212 15.42874646 10.74275212 15.42874646 12 14 C12.25003964 10.54178598 12.25003964 10.54178598 12 7 C11.34 6.34 10.68 5.68 10 5 C9.01 5 8.02 5 7 5 Z " fill="#00B6FF" transform="translate(436,169)"/>
<path d="M0 0 C0.94746094 -0.01675781 1.89492188 -0.03351563 2.87109375 -0.05078125 C13.72399526 1.01728207 23.13543407 5.09060887 32.91796875 9.640625 C43.19839317 14.29697003 53.03338004 16.70183595 64.3125 17 C65.21226563 17.03416016 66.11203125 17.06832031 67.0390625 17.10351562 C69.21315069 17.18446572 71.38779801 17.25018146 73.5625 17.3125 C69.04095261 22.17520296 62.41719587 22.87044772 56.0078125 23.60546875 C44.00955185 24.01852362 33.92534427 19.80118564 23.54296875 14.37109375 C13.278305 9.00406293 2.75315607 5.20370293 -8.4375 2.3125 C-5.09512144 0.08424763 -3.91431505 0.01559488 0 0 Z " fill="#00B6FF" transform="translate(38.4375,163.6875)"/>
<path d="M0 0 C3 1 3 1 5 2 C4.67 3.65 4.34 5.3 4 7 C3.24074219 6.94199219 2.48148437 6.88398438 1.69921875 6.82421875 C0.70535156 6.77910156 -0.28851563 6.73398438 -1.3125 6.6875 C-2.29863281 6.62949219 -3.28476562 6.57148438 -4.30078125 6.51171875 C-7.16568119 6.73646583 -7.16568119 6.73646583 -8.8359375 9.14453125 C-10.13152987 12.32264541 -10.36923028 14.57872752 -10.3125 18 C-10.30863281 19.010625 -10.30476563 20.02125 -10.30078125 21.0625 C-9.96765324 24.31590604 -9.39611161 27.60388839 -7 30 C-4.67182036 30.36760731 -2.3381615 30.70241581 0 31 C0 28.03 0 25.06 0 22 C-1.65 22 -3.3 22 -5 22 C-5 20.02 -5 18.04 -5 16 C-3.35425434 15.97311849 -1.70838587 15.95365877 -0.0625 15.9375 C0.85402344 15.92589844 1.77054687 15.91429687 2.71484375 15.90234375 C5 16 5 16 6 17 C6.08631874 18.34267413 6.10706473 19.68974322 6.09765625 21.03515625 C6.09443359 21.84404297 6.09121094 22.65292969 6.08789062 23.48632812 C6.07951172 24.33646484 6.07113281 25.18660156 6.0625 26.0625 C6.05798828 26.91650391 6.05347656 27.77050781 6.04882812 28.65039062 C6.03700373 30.76695663 6.01906769 32.88348685 6 35 C-0.99857633 36.88676352 -6.01535981 38.03659388 -12.8125 34.5625 C-16.76756037 29.92942928 -17.74859353 24.38836148 -18.375 18.4375 C-17.58143677 11.1631704 -15.81241411 5.7691603 -10 1 C-6.82587823 -0.58706088 -3.46361333 -0.28477127 0 0 Z " fill="#00B6FF" transform="translate(288,168)"/>
<path d="M0 0 C2.31 0 4.62 0 7 0 C7.50757862 1.41396902 8.00574925 2.83131729 8.5 4.25 C8.7784375 5.03890625 9.056875 5.8278125 9.34375 6.640625 C10 9 10 9 10 13 C10.66 13 11.32 13 12 13 C12.06058594 12.39671875 12.12117187 11.7934375 12.18359375 11.171875 C12.26738281 10.37265625 12.35117187 9.5734375 12.4375 8.75 C12.51871094 7.96109375 12.59992187 7.1721875 12.68359375 6.359375 C12.97634993 4.17635361 13.42064419 2.1226818 14 0 C16.31 0 18.62 0 21 0 C20.45932046 6.62332433 18.81626083 12.83760113 17.04296875 19.2265625 C16.39559146 21.568759 15.76911597 23.91697071 15.17578125 26.2734375 C14.93214844 27.23507813 14.68851563 28.19671875 14.4375 29.1875 C14.12619141 30.44626953 14.12619141 30.44626953 13.80859375 31.73046875 C12.8846223 34.32383788 11.90125497 36.00524069 10 38 C7.27115407 38.8759914 4.90268134 38.85954768 2 39 C1 38 1 38 0.9375 35.4375 C0.958125 34.633125 0.97875 33.82875 1 33 C1.639375 32.87625 2.27875 32.7525 2.9375 32.625 C3.618125 32.41875 4.29875 32.2125 5 32 C8.19880601 25.60238798 4.76297016 17.4592228 3 11.0625 C2.71382812 9.99708984 2.42765625 8.93167969 2.1328125 7.83398438 C1.42962006 5.22045248 0.71850443 2.60935585 0 0 Z " fill="#00B6FF" transform="translate(725,177)"/>
<path d="M0 0 C1.65 0 3.3 0 5 0 C5 12.54 5 25.08 5 38 C2.69 38 0.38 38 -2 38 C-2.86625 38.226875 -3.7325 38.45375 -4.625 38.6875 C-7 39 -7 39 -9.6875 37.9375 C-13.21761385 34.97983705 -13.79609328 32.17379131 -14.21875 27.66796875 C-14.43603386 21.77414396 -13.80044838 17.22750363 -11 12 C-8.0625 10.375 -8.0625 10.375 -5 10 C-3.68 10.66 -2.36 11.32 -1 12 C-0.67 8.04 -0.34 4.08 0 0 Z M-6 16 C-8.45719209 20.31721798 -8.59844091 24.12574212 -8 29 C-6.66829691 31.97984167 -6.66829691 31.97984167 -5 34 C-1.98178857 32.8760715 -1.98178857 32.8760715 -0.25 30.3125 C0.3197499 25.04231344 0.34293869 20.83231106 -2 16 C-3.32 16 -4.64 16 -6 16 Z " fill="#00B6FF" transform="translate(416,166)"/>
<path d="M0 0 C2.23413013 3.35119519 2.23847762 4.4177755 2.1953125 8.32421875 C2.18886719 9.35224609 2.18242188 10.38027344 2.17578125 11.43945312 C2.15902344 12.51130859 2.14226563 13.58316406 2.125 14.6875 C2.11597656 15.77095703 2.10695313 16.85441406 2.09765625 17.97070312 C2.0740734 20.6473571 2.04116126 23.32356797 2 26 C-0.31 26 -2.62 26 -5 26 C-5.33 19.07 -5.66 12.14 -6 5 C-6.99 5 -7.98 5 -9 5 C-9.02505615 5.60062256 -9.0501123 6.20124512 -9.07592773 6.82006836 C-9.1915528 9.52611437 -9.31442936 12.23178283 -9.4375 14.9375 C-9.49647461 16.35579102 -9.49647461 16.35579102 -9.55664062 17.80273438 C-9.59853516 18.70185547 -9.64042969 19.60097656 -9.68359375 20.52734375 C-9.72025146 21.35999756 -9.75690918 22.19265137 -9.79467773 23.05053711 C-10 25 -10 25 -11 26 C-12.98 26 -14.96 26 -17 26 C-17 17.09 -17 8.18 -17 -1 C-14.69 -1 -12.38 -1 -10 -1 C-6.00471255 -2.33176248 -3.90144863 -1.41870859 0 0 Z " fill="#00B6FF" transform="translate(665,178)"/>
<path d="M0 0 C2.08234758 3.04193528 2.23748118 5.57661809 2.1953125 9.203125 C2.18886719 10.1828125 2.18242187 11.1625 2.17578125 12.171875 C2.15902344 13.18765625 2.14226562 14.2034375 2.125 15.25 C2.11597656 16.28125 2.10695313 17.3125 2.09765625 18.375 C2.07412011 20.91690287 2.04124023 23.4583328 2 26 C-0.31 26 -2.62 26 -5 26 C-5.33 19.07 -5.66 12.14 -6 5 C-6.99 5 -7.98 5 -9 5 C-9.02505615 5.60062256 -9.0501123 6.20124512 -9.07592773 6.82006836 C-9.1915528 9.52611437 -9.31442936 12.23178283 -9.4375 14.9375 C-9.49647461 16.35579102 -9.49647461 16.35579102 -9.55664062 17.80273438 C-9.59853516 18.70185547 -9.64042969 19.60097656 -9.68359375 20.52734375 C-9.72025146 21.35999756 -9.75690918 22.19265137 -9.79467773 23.05053711 C-10 25 -10 25 -11 26 C-12.98 26 -14.96 26 -17 26 C-17 17.09 -17 8.18 -17 -1 C-14.69 -1 -12.38 -1 -10 -1 C-5.98367013 -2.33877662 -3.90367509 -1.49049413 0 0 Z " fill="#00B6FF" transform="translate(397,178)"/>
<path d="M0 0 C2.77037022 2.00613016 3.34655915 3.72360789 4 7 C4.08904997 8.50192011 4.13060479 10.00716266 4.1328125 11.51171875 C4.13474609 12.77145508 4.13474609 12.77145508 4.13671875 14.05664062 C4.13285156 14.92482422 4.12898438 15.79300781 4.125 16.6875 C4.13080078 18.00717773 4.13080078 18.00717773 4.13671875 19.35351562 C4.13542969 20.18947266 4.13414062 21.02542969 4.1328125 21.88671875 C4.13168457 22.65201904 4.13055664 23.41731934 4.12939453 24.20581055 C4 26 4 26 3 27 C1.33388095 27.042721 -0.33382885 27.04063832 -2 27 C-4.16848344 26.9224756 -4.16848344 26.9224756 -6.875 27.6875 C-10 28 -10 28 -12.3125 27.0625 C-14.8108165 24.00900205 -15.19459265 20.83197827 -15 17 C-13.76245899 14.00384809 -12.76729312 12.53710519 -10.125 10.6875 C-7.65169514 9.88731313 -5.58383294 9.85645373 -3 10 C-3.66 8.35 -4.32 6.7 -5 5 C-6.98 5.33 -8.96 5.66 -11 6 C-11.66 4.35 -12.32 2.7 -13 1 C-8.25595279 -0.61297605 -4.86881425 -1.4385133 0 0 Z M-7 15 C-7.66 16.98 -8.32 18.96 -9 21 C-7.02 21.99 -7.02 21.99 -5 23 C-2.65026182 21.10244856 -2.65026182 21.10244856 -2.875 17.875 C-2.91625 16.92625 -2.9575 15.9775 -3 15 C-4.32 15 -5.64 15 -7 15 Z " fill="#00B6FF" transform="translate(372,177)"/>
<path d="M0 0 C3.6276725 5.28507066 3.3585845 10.22473173 3.1875 16.375 C3.16719727 17.76525391 3.16719727 17.76525391 3.14648438 19.18359375 C3.11133881 21.45633998 3.06214132 23.72785847 3 26 C0.69 26 -1.62 26 -4 26 C-4.33 18.74 -4.66 11.48 -5 4 C-5.99 4.33 -6.98 4.66 -8 5 C-9.0390378 9.42682491 -9.31592951 13.78934632 -9.5625 18.3125 C-9.60568359 19.05306641 -9.64886719 19.79363281 -9.69335938 20.55664062 C-9.79870432 22.37091464 -9.89978316 24.1854355 -10 26 C-11.98 26 -13.96 26 -16 26 C-16 17.09 -16 8.18 -16 -1 C-13.69 -1 -11.38 -1 -9 -1 C-5.12149695 -2.29283435 -3.6541538 -1.7509487 0 0 Z " fill="#00B6FF" transform="translate(617,178)"/>
<path d="M0 0 C3.3898197 4.59265895 3.28312943 8.52616444 3 14 C-0.96 14.33 -4.92 14.66 -9 15 C-8.67 16.98 -8.34 18.96 -8 21 C-4.7 20.67 -1.4 20.34 2 20 C2 21.65 2 23.3 2 25 C-2.73291737 26.96242915 -6.02712223 27.38135494 -11 26 C-15.11669592 21.88330408 -16.15538737 18.38791072 -16.25 12.6875 C-16.20469195 6.97868584 -15.11590864 3.11590864 -11 -1 C-7.06552224 -2.74865678 -3.83295608 -1.60287254 0 0 Z M-7 3 C-9.28728734 4.83883881 -9.28728734 4.83883881 -9.125 7.625 C-9.08375 8.40875 -9.0425 9.1925 -9 10 C-7.02 10 -5.04 10 -3 10 C-3.27034634 7.56282742 -3.27034634 7.56282742 -4 5 C-4.99 4.34 -5.98 3.68 -7 3 Z " fill="#00B6FF" transform="translate(711,178)"/>
<path d="M0 0 C2.37374137 1.66161896 2.8807759 2.58813494 3.6875 5.375 C3.99540602 7.9614106 4.1445009 10.39898385 4 13 C3 14 3 14 0.49609375 14.09765625 C-0.51324219 14.08605469 -1.52257812 14.07445312 -2.5625 14.0625 C-3.57441406 14.05347656 -4.58632813 14.04445312 -5.62890625 14.03515625 C-6.80259766 14.01775391 -6.80259766 14.01775391 -8 14 C-7.67 16.31 -7.34 18.62 -7 21 C-4.03 20.67 -1.06 20.34 2 20 C2.33 21.65 2.66 23.3 3 25 C-1.7432608 26.96671789 -5.00636229 27.29464681 -10 26 C-12.86942113 23.73466753 -13.83907612 22.48277163 -15 19 C-15.96764644 5.06216959 -15.96764644 5.06216959 -12 0 C-7.72389959 -2.85073361 -4.60698141 -1.79160388 0 0 Z M-6 3 C-8.1818424 3.80201271 -8.1818424 3.80201271 -8.6875 5.9375 C-9.2113134 8.05750404 -9.2113134 8.05750404 -8 10 C-6.02 10 -4.04 10 -2 10 C-2.60183749 7.97954558 -3.27306096 5.97888961 -4 4 C-4.66 3.67 -5.32 3.34 -6 3 Z " fill="#00B6FF" transform="translate(564,178)"/>
<path d="M0 0 C2.08557757 3.12836636 2.36393593 4.48623034 2.6875 8.125 C2.77386719 9.01445312 2.86023438 9.90390625 2.94921875 10.8203125 C2.97435547 11.89925781 2.97435547 11.89925781 3 13 C1.26043342 14.73956658 -1.1936622 14.37190386 -3.5625 14.5625 C-4.57441406 14.64628906 -5.58632813 14.73007813 -6.62890625 14.81640625 C-7.41136719 14.87699219 -8.19382812 14.93757813 -9 15 C-8.67 16.98 -8.34 18.96 -8 21 C-4.7 20.67 -1.4 20.34 2 20 C1.8125 22.375 1.8125 22.375 1 25 C-2.00558382 26.94478953 -3.97816084 27.00038314 -7.5625 26.9375 C-11.68243887 25.81388031 -12.78437987 24.57907866 -15 21 C-16.91809997 15.2457001 -16.80126822 9.07601312 -14.625 3.4375 C-13.06290212 1.09435318 -11.9172222 -0.59234569 -9.3125 -1.75 C-5.84926856 -2.1244034 -3.23528188 -1.19825255 0 0 Z M-7 3 C-7.99 3.495 -7.99 3.495 -9 4 C-9.74524194 6.47608101 -9.74524194 6.47608101 -10 9 C-8.87465895 10.35618499 -8.87465895 10.35618499 -5.9375 10.0625 C-4.968125 10.041875 -3.99875 10.02125 -3 10 C-3.27034634 7.56282742 -3.27034634 7.56282742 -4 5 C-4.99 4.34 -5.98 3.68 -7 3 Z " fill="#00B6FF" transform="translate(513,178)"/>
<path d="M0 0 C0.33 0.99 0.66 1.98 1 3 C1.66 3.33 2.32 3.66 3 4 C4.231394 7.69418201 3.64432764 10.2056261 3 14 C-0.63 14.33 -4.26 14.66 -8 15 C-7.67 16.65 -7.34 18.3 -7 20 C-3.42355152 21.2380014 -0.66305234 20.74926071 3 20 C3 21.65 3 23.3 3 25 C-1.7432608 26.96671789 -5.00636229 27.29464681 -10 26 C-12.86942113 23.73466753 -13.83907612 22.48277163 -15 19 C-15.14554833 16.8783532 -15.22080412 14.75143294 -15.25 12.625 C-15.27578125 11.50351563 -15.3015625 10.38203125 -15.328125 9.2265625 C-14.85938572 4.61729291 -13.22384047 2.05386263 -9.75 -0.9375 C-5.88532178 -2.43067113 -3.7422872 -1.58327535 0 0 Z M-6 3 C-8.58777208 6.05580974 -8.58777208 6.05580974 -9 10 C-6.69 10 -4.38 10 -2 10 C-2.60183749 7.97954558 -3.27306096 5.97888961 -4 4 C-4.66 3.67 -5.32 3.34 -6 3 Z " fill="#00B6FF" transform="translate(473,178)"/>
<path d="M0 0 C3.53319635 2.94433029 3.55838762 6.73624726 3.984375 11.07421875 C3.98953125 11.70972656 3.9946875 12.34523437 4 13 C3 14 3 14 0.27734375 14.09765625 C-0.82480469 14.08605469 -1.92695313 14.07445312 -3.0625 14.0625 C-4.71958984 14.04896484 -4.71958984 14.04896484 -6.41015625 14.03515625 C-7.26480469 14.02355469 -8.11945313 14.01195312 -9 14 C-8.3045656 17.00384054 -8.3045656 17.00384054 -7 20 C-3.92132558 21.5924178 -1.26508669 20.81627167 2 20 C2 21.65 2 23.3 2 25 C-2.32562039 27.2283499 -5.30457378 27.1951994 -10 26 C-12.86942113 23.73466753 -13.83907612 22.48277163 -15 19 C-15.96764644 5.06216959 -15.96764644 5.06216959 -12 0 C-7.7357132 -2.84285787 -4.57791324 -1.86507576 0 0 Z M-7 3 C-8.4606285 5.64738916 -9 6.89448334 -9 10 C-6.69 10 -4.38 10 -2 10 C-2.77479736 7.00847418 -2.77479736 7.00847418 -4 4 C-4.99 3.67 -5.98 3.34 -7 3 Z " fill="#00B6FF" transform="translate(343,178)"/>
<path d="M0 0 C1.98 0 3.96 0 6 0 C7.33333333 4.66666667 8.66666667 9.33333333 10 14 C10.99 9.38 11.98 4.76 13 0 C14.98 0 16.96 0 19 0 C20.51395155 3.93045114 19.44333344 6.75728226 18.25 10.6875 C17.87875 11.92113281 17.5075 13.15476563 17.125 14.42578125 C15.799682 18.63642698 14.43902441 22.82682922 13 27 C10.69 27 8.38 27 6 27 C4.98949663 23.44039436 3.99346596 19.87689478 3 16.3125 C2.57074219 14.80139648 2.57074219 14.80139648 2.1328125 13.25976562 C1.86210938 12.28330078 1.59140625 11.30683594 1.3125 10.30078125 C1.06113281 9.40528564 0.80976562 8.50979004 0.55078125 7.5871582 C-0.00466098 4.97810622 -0.1005663 2.65872158 0 0 Z " fill="#00B6FF" transform="translate(528,177)"/>
<path d="M0 0 C1.670625 0.061875 1.670625 0.061875 3.375 0.125 C3.705 1.775 4.035 3.425 4.375 5.125 C3.385 5.62 3.385 5.62 2.375 6.125 C1.715 5.795 1.055 5.465 0.375 5.125 C0.045 7.105 -0.285 9.085 -0.625 11.125 C0.695 11.125 2.015 11.125 3.375 11.125 C3.375 12.775 3.375 14.425 3.375 16.125 C2.055 16.125 0.735 16.125 -0.625 16.125 C-0.625 23.385 -0.625 30.645 -0.625 38.125 C-2.935 38.125 -5.245 38.125 -7.625 38.125 C-7.625 30.865 -7.625 23.605 -7.625 16.125 C-8.615 16.125 -9.605 16.125 -10.625 16.125 C-10.625 14.805 -10.625 13.485 -10.625 12.125 C-9.965 11.795 -9.305 11.465 -8.625 11.125 C-7.79004893 9.07662696 -7.79004893 9.07662696 -7.125 6.6875 C-5.20286725 0.17940922 -5.20286725 0.17940922 0 0 Z " fill="#00B6FF" transform="translate(631.625,165.875)"/>
<path d="M0 0 C2.31 0 4.62 0 7 0 C7.99 4.29 8.98 8.58 10 13 C11.5994614 9.80107719 12.42595236 7.64537424 13.125 4.25 C13.29257812 3.45078125 13.46015625 2.6515625 13.6328125 1.828125 C13.75398438 1.22484375 13.87515625 0.6215625 14 0 C16.31 0 18.62 0 21 0 C16.80851064 18.34042553 16.80851064 18.34042553 14 27 C11.69 27 9.38 27 7 27 C5.83131814 22.68804349 4.66539109 18.37534696 3.5 14.0625 C3.16613281 12.83080078 2.83226562 11.59910156 2.48828125 10.33007812 C2.17246094 9.16025391 1.85664063 7.99042969 1.53125 6.78515625 C1.23798828 5.70113525 0.94472656 4.61711426 0.64257812 3.50024414 C0 1 0 1 0 0 Z " fill="#00B6FF" transform="translate(306,177)"/>
<path d="M0 0 C1.051875 -0.00773437 2.10375 -0.01546875 3.1875 -0.0234375 C6 0.375 6 0.375 7.8515625 1.5859375 C9.37138859 3.95355773 9.39999603 5.57544449 9.375 8.375 C9.38273437 9.24125 9.39046875 10.1075 9.3984375 11 C9 13.375 9 13.375 7.75 15.13671875 C4.53268968 17.41325306 0.84885705 17.38850476 -3 17.375 C-6 16.5625 -6 16.5625 -8 15.375 C-9.22691067 12.92117866 -9.20175931 11.17515897 -9.25 8.4375 C-9.27578125 7.56222656 -9.3015625 6.68695313 -9.328125 5.78515625 C-9 3.375 -9 3.375 -7.859375 1.58203125 C-5.20290657 -0.1424409 -3.14202442 -0.02310312 0 0 Z " fill="#00B6FF" transform="translate(269,31.625)"/>
<path d="M0 0 C1.65 0.33 3.3 0.66 5 1 C5 2.65 5 4.3 5 6 C6.65 6.33 8.3 6.66 10 7 C9.67 8.32 9.34 9.64 9 11 C7.68 11 6.36 11 5 11 C5 16.61 5 22.22 5 28 C6.65 28 8.3 28 10 28 C10 29.65 10 31.3 10 33 C3.67567568 34.33783784 3.67567568 34.33783784 0.625 32.8125 C-2.89019824 28.89170196 -2.11983611 23.74265229 -2.0625 18.75 C-2.05798828 18.00492188 -2.05347656 17.25984375 -2.04882812 16.4921875 C-2.03709246 14.6614236 -2.0191585 12.83070127 -2 11 C-2.66 11 -3.32 11 -4 11 C-4 9.68 -4 8.36 -4 7 C-3.34 6.67 -2.68 6.34 -2 6 C-1.27306096 4.02111039 -0.60183749 2.02045442 0 0 Z " fill="#00B6FF" transform="translate(684,171)"/>
<path d="M0 0 C2.31 0 4.62 0 7 0 C7 12.54 7 25.08 7 38 C4.69 38 2.38 38 0 38 C0 25.46 0 12.92 0 0 Z " fill="#00B6FF" transform="translate(717,166)"/>
<path d="M0 0 C-0.66 1.65 -1.32 3.3 -2 5 C-2.94875 4.938125 -3.8975 4.87625 -4.875 4.8125 C-6.421875 4.9053125 -6.421875 4.9053125 -8 5 C-10.35119399 8.52679099 -10.21443452 10.02879485 -10.125 14.1875 C-10.09792969 15.81751953 -10.09792969 15.81751953 -10.0703125 17.48046875 C-10.04710937 18.31191406 -10.02390625 19.14335937 -10 20 C-7.03 20 -4.06 20 -1 20 C-1 21.65 -1 23.3 -1 25 C-5.05802002 27.02901001 -7.63324414 27.30073579 -12 26 C-15.11683464 23.55707555 -16.28599226 21.82844148 -17 18 C-17.48688968 11.80151982 -17.78996257 6.22753457 -14 1 C-9.49540633 -3.23961757 -5.39818547 -1.63474462 0 0 Z " fill="#00B6FF" transform="translate(496,178)"/>
<path d="M0 0 C2.31 0 4.62 0 7 0 C7 11.55 7 23.1 7 35 C4.69 35 2.38 35 0 35 C0 23.45 0 11.9 0 0 Z " fill="#00B6FF" transform="translate(589,169)"/>
<path d="M0 0 C1.98 0 3.96 0 6 0 C7 1 7 1 7.11352539 3.50024414 C7.10828857 4.58426514 7.10305176 5.66828613 7.09765625 6.78515625 C7.09443359 7.95498047 7.09121094 9.12480469 7.08789062 10.33007812 C7.07951172 11.56177734 7.07113281 12.79347656 7.0625 14.0625 C7.05798828 15.29806641 7.05347656 16.53363281 7.04882812 17.80664062 C7.03699608 20.87114117 7.02051173 23.93554721 7 27 C4.69 27 2.38 27 0 27 C0 18.09 0 9.18 0 0 Z " fill="#00B6FF" transform="translate(671,177)"/>
<path d="M0 0 C2.31 0 4.62 0 7 0 C7.02886537 4.31248609 7.04675255 8.62494762 7.0625 12.9375 C7.07087891 14.16919922 7.07925781 15.40089844 7.08789062 16.66992188 C7.09111328 17.83974609 7.09433594 19.00957031 7.09765625 20.21484375 C7.10289307 21.29886475 7.10812988 22.38288574 7.11352539 23.49975586 C7 26 7 26 6 27 C4.02 27 2.04 27 0 27 C0 18.09 0 9.18 0 0 Z " fill="#00B6FF" transform="translate(519,177)"/>
<path d="M0 0 C1.98 0 3.96 0 6 0 C7.74545605 1.74545605 7.1302316 4.16124217 7.1328125 6.53125 C7.13410156 7.65144531 7.13539063 8.77164063 7.13671875 9.92578125 C7.13285156 11.10527344 7.12898437 12.28476563 7.125 13.5 C7.12886719 14.67949219 7.13273438 15.85898438 7.13671875 17.07421875 C7.13542969 18.19441406 7.13414062 19.31460938 7.1328125 20.46875 C7.13168457 21.50451172 7.13055664 22.54027344 7.12939453 23.60742188 C7 26 7 26 6 27 C4.02 27 2.04 27 0 27 C0 18.09 0 9.18 0 0 Z " fill="#00B6FF" transform="translate(637,177)"/>
<path d="M0 0 C1.98 0 3.96 0 6 0 C6 8.91 6 17.82 6 27 C4.02 27 2.04 27 0 27 C0 18.09 0 9.18 0 0 Z " fill="#00B6FF" transform="translate(298,177)"/>
<path d="M0 0 C2.5 0.125 2.5 0.125 3.5 1.125 C3.625 3.625 3.625 3.625 3.5 6.125 C2.5 7.125 2.5 7.125 0 7.25 C-2.5 7.125 -2.5 7.125 -3.5 6.125 C-3.625 3.625 -3.625 3.625 -3.5 1.125 C-2.5 0.125 -2.5 0.125 0 0 Z " fill="#00B6FF" transform="translate(674.5,166.875)"/>
<path d="M0 0 C1.2065625 0.0309375 1.2065625 0.0309375 2.4375 0.0625 C3.5625 4.8125 3.5625 4.8125 2.4375 7.0625 C0.77138095 7.105221 -0.89632885 7.10313832 -2.5625 7.0625 C-3.5625 6.0625 -3.5625 6.0625 -3.6875 3.5625 C-3.51717518 0.15600356 -3.41884482 0.08338646 0 0 Z " fill="#00B6FF" transform="translate(522.5625,166.9375)"/>
<path d="M0 0 C2.00720923 0.28674418 4.0085944 0.61866701 6 1 C5.67 2.98 5.34 4.96 5 7 C3.33388095 7.042721 1.66617115 7.04063832 0 7 C-1 6 -1 6 -1.125 3.5 C-1 1 -1 1 0 0 Z " fill="#00B6FF" transform="translate(638,167)"/>
<path d="M0 0 C1.2065625 0.0309375 1.2065625 0.0309375 2.4375 0.0625 C3.0625 2.4375 3.0625 2.4375 3.4375 5.0625 C2.7775 5.7225 2.1175 6.3825 1.4375 7.0625 C-1.1875 6.6875 -1.1875 6.6875 -3.5625 6.0625 C-3.605221 4.39638095 -3.60313832 2.72867115 -3.5625 1.0625 C-2.5625 0.0625 -2.5625 0.0625 0 0 Z " fill="#00B6FF" transform="translate(301.5625,166.9375)"/>
</svg>
