<svg width="193" height="96" viewBox="0 0 193 96" fill="none" xmlns="http://www.w3.org/2000/svg">
<path d="M21.8232 93.2415C21.9751 93.6902 22.0663 94.04 22.1043 94.2985C22.1423 94.5571 22.0891 94.7548 21.9524 94.8841C21.8156 95.0133 21.5725 95.097 21.2307 95.1274C20.8812 95.1578 20.4102 95.173 19.8025 95.173C19.172 95.173 18.6782 95.1654 18.3287 95.1426C17.9793 95.1274 17.7058 95.0894 17.5235 95.0285C17.3412 94.9677 17.2044 94.8993 17.136 94.7928C17.0601 94.6939 16.9993 94.5647 16.9537 94.405L15.3356 89.5763H6.30312L4.78378 94.2757C4.7306 94.4506 4.66982 94.5951 4.58626 94.7092C4.5027 94.8308 4.37356 94.9221 4.19883 94.9905C4.02411 95.059 3.76582 95.1046 3.43916 95.1274C3.1125 95.1502 2.67949 95.1654 2.14772 95.1654C1.57796 95.1654 1.12976 95.1502 0.810694 95.1122C0.491632 95.0742 0.26373 94.9829 0.142182 94.846C0.020635 94.7015 -0.0249439 94.5038 0.0130397 94.2453C0.0510233 93.9867 0.142183 93.637 0.294117 93.2035L7.70092 71.8736C7.77689 71.6607 7.86045 71.4934 7.9592 71.3641C8.05796 71.2348 8.21749 71.136 8.4302 71.0675C8.64291 70.9991 8.94678 70.9535 9.32662 70.9383C9.70645 70.923 10.2154 70.9078 10.846 70.9078C11.5752 70.9078 12.1602 70.9154 12.5932 70.9383C13.0262 70.9611 13.3605 70.9991 13.6036 71.0675C13.8467 71.136 14.0138 71.2348 14.1201 71.3717C14.2265 71.5086 14.3177 71.6911 14.386 71.9268L21.8232 93.2415ZM10.7928 75.6149H10.7776L7.38185 85.835H14.1961L10.7928 75.6149Z" fill="#2B3990"/>
<path d="M29.1693 72.2462C29.1693 73.1891 28.9794 73.8355 28.5919 74.2005C28.2121 74.5579 27.498 74.7404 26.4572 74.7404C25.4089 74.7404 24.6948 74.5655 24.3302 74.2233C23.9655 73.8811 23.7832 73.2499 23.7832 72.345C23.7832 71.4021 23.9731 70.7481 24.353 70.3831C24.7328 70.0181 25.4469 69.8356 26.4952 69.8356C27.536 69.8356 28.2425 70.0105 28.6147 70.3679C28.987 70.7253 29.1693 71.3413 29.1693 72.2462ZM28.8198 94.4354C28.8198 94.5571 28.7818 94.6711 28.7059 94.7624C28.6299 94.8536 28.5084 94.9297 28.326 94.9981C28.1437 95.0666 27.9082 95.1046 27.6119 95.135C27.3157 95.1654 26.9358 95.1806 26.48 95.1806C26.0242 95.1806 25.6444 95.1654 25.3481 95.135C25.0519 95.1046 24.8088 95.059 24.634 94.9981C24.4593 94.9373 24.3302 94.8612 24.2542 94.7624C24.1782 94.6711 24.1402 94.5647 24.1402 94.4354V77.8961C24.1402 77.7745 24.1782 77.6604 24.2542 77.5692C24.3302 77.4779 24.4517 77.3943 24.634 77.3258C24.8164 77.2574 25.0519 77.2042 25.3481 77.1661C25.6444 77.1281 26.0242 77.1129 26.48 77.1129C26.9358 77.1129 27.3157 77.1281 27.6119 77.1661C27.9082 77.2042 28.1437 77.2574 28.326 77.3258C28.5084 77.3943 28.6299 77.4779 28.7059 77.5692C28.7818 77.6604 28.8198 77.7669 28.8198 77.8961V94.4354Z" fill="#2B3990"/>
<path d="M48.4193 94.4354C48.4193 94.5723 48.3889 94.6863 48.3281 94.7776C48.2673 94.8689 48.161 94.9449 48.0091 95.0133C47.8571 95.0742 47.6596 95.1198 47.4089 95.1426C47.1582 95.1654 46.8392 95.1806 46.4745 95.1806C46.0795 95.1806 45.7604 95.1654 45.5097 95.1426C45.259 95.1198 45.0615 95.0742 44.9096 95.0133C44.7577 94.9525 44.6437 94.8765 44.5753 94.7776C44.507 94.6863 44.4766 94.5723 44.4766 94.4354V92.5952C43.6257 93.5153 42.7293 94.2225 41.7949 94.732C40.8605 95.2415 39.8274 95.4924 38.6879 95.4924C37.4268 95.4924 36.3557 95.2491 35.4897 94.7548C34.616 94.2681 33.902 93.6065 33.355 92.7777C32.808 91.9488 32.4054 90.9755 32.1547 89.8729C31.904 88.7626 31.7825 87.5992 31.7825 86.3673C31.7825 84.8921 31.942 83.5689 32.2535 82.3903C32.5725 81.2116 33.0283 80.2078 33.6361 79.379C34.2438 78.5501 34.9959 77.9114 35.8999 77.4627C36.8039 77.0141 37.8446 76.7935 39.0145 76.7935C39.9413 76.7935 40.7846 76.9836 41.5366 77.3639C42.2887 77.7441 43.0408 78.2992 43.7853 79.0292V70.0562C43.7853 69.9345 43.8157 69.8204 43.884 69.7216C43.9524 69.6227 44.074 69.5391 44.2563 69.4706C44.4386 69.4022 44.6741 69.349 44.9704 69.311C45.2666 69.2729 45.6465 69.2577 46.1023 69.2577C46.5581 69.2577 46.9379 69.2729 47.2342 69.311C47.5305 69.349 47.766 69.4022 47.9407 69.4706C48.1154 69.5391 48.237 69.6227 48.3129 69.7216C48.3889 69.8204 48.4269 69.9345 48.4269 70.0562V94.4354H48.4193ZM43.7853 83.356C43.1168 82.5119 42.4786 81.8732 41.8633 81.4245C41.248 80.9759 40.6099 80.7554 39.9413 80.7554C39.3336 80.7554 38.8094 80.9074 38.3764 81.2116C37.9358 81.5158 37.5864 81.9188 37.3205 82.4283C37.0546 82.9378 36.8571 83.5005 36.7279 84.1316C36.5988 84.7552 36.5304 85.4016 36.5304 86.0555C36.5304 86.7475 36.5836 87.4243 36.6975 88.0783C36.8115 88.7322 36.9938 89.3177 37.2445 89.8348C37.4952 90.3519 37.837 90.7625 38.2549 91.0667C38.6727 91.3709 39.2045 91.5306 39.8502 91.5306C40.1692 91.5306 40.4807 91.485 40.7846 91.3937C41.0884 91.3025 41.3999 91.1504 41.7114 90.9374C42.0228 90.7245 42.3495 90.4508 42.6838 90.1086C43.018 89.7664 43.3827 89.3482 43.7777 88.8539V83.356H43.7853Z" fill="#2B3990"/>
<path d="M78.601 91.4241C78.601 91.7359 78.5934 91.9944 78.5706 92.215C78.5554 92.4355 78.525 92.618 78.487 92.7701C78.449 92.9222 78.4035 93.059 78.3351 93.1731C78.2667 93.2872 78.1756 93.4088 78.0388 93.5533C77.9021 93.6978 77.6362 93.8803 77.2488 94.1008C76.8613 94.3214 76.3827 94.5343 75.8206 94.7396C75.2584 94.9449 74.6127 95.1122 73.891 95.2491C73.1693 95.3859 72.3869 95.4544 71.5436 95.4544C69.8951 95.4544 68.4138 95.2034 67.092 94.694C65.7701 94.1845 64.6382 93.424 63.7114 92.4203C62.7846 91.4165 62.0705 90.1542 61.5768 88.641C61.083 87.1277 60.8323 85.3711 60.8323 83.3636C60.8323 81.3181 61.1058 79.5083 61.6527 77.919C62.1997 76.3373 62.9594 74.9989 63.9393 73.9267C64.9193 72.8469 66.0892 72.0333 67.4566 71.4706C68.824 70.9155 70.3282 70.6341 71.9767 70.6341C72.6452 70.6341 73.2909 70.6873 73.9062 70.8014C74.5215 70.9155 75.0989 71.0599 75.6231 71.2348C76.1473 71.4173 76.6258 71.6226 77.0437 71.8584C77.4615 72.0941 77.7578 72.2918 77.9249 72.4591C78.092 72.6264 78.206 72.7633 78.2667 72.8773C78.3275 72.9914 78.3807 73.1283 78.4187 73.3032C78.4566 73.4781 78.487 73.6834 78.5022 73.9191C78.5174 74.1549 78.5326 74.4438 78.5326 74.7936C78.5326 75.1662 78.5174 75.478 78.4946 75.7442C78.4718 76.0027 78.4263 76.2156 78.3655 76.3753C78.3047 76.535 78.2287 76.6567 78.1452 76.7251C78.0616 76.8011 77.9629 76.8392 77.8489 76.8392C77.6666 76.8392 77.4311 76.7327 77.1424 76.5122C76.8537 76.2993 76.4891 76.0559 76.0409 75.7898C75.5927 75.5236 75.0533 75.2803 74.4304 75.0674C73.8075 74.8469 73.063 74.7404 72.197 74.7404C71.2474 74.7404 70.3965 74.9381 69.6445 75.3259C68.8924 75.7137 68.2619 76.2764 67.7301 76.9989C67.2059 77.7213 66.8033 78.6034 66.5298 79.6299C66.2563 80.6565 66.1196 81.82 66.1196 83.1051C66.1196 84.5195 66.2639 85.7437 66.5526 86.7779C66.8413 87.8121 67.2591 88.6638 67.7985 89.333C68.3378 90.0021 68.9835 90.504 69.7508 90.831C70.5105 91.158 71.3689 91.3253 72.3185 91.3253C73.1845 91.3253 73.9366 91.2264 74.5671 91.0211C75.1977 90.8158 75.737 90.5877 76.1928 90.3443C76.641 90.0934 77.0133 89.8729 77.3095 89.6752C77.5982 89.4774 77.8261 89.3786 77.9857 89.3786C78.1072 89.3786 78.206 89.4014 78.2819 89.4546C78.3579 89.5079 78.4187 89.6067 78.4642 89.7512C78.5174 89.9033 78.5478 90.1086 78.5782 90.3747C78.5858 90.6181 78.601 90.9755 78.601 91.4241Z" fill="#2B3990"/>
<path d="M92.465 79.4018C92.465 79.8504 92.4498 80.2154 92.427 80.4968C92.4043 80.7782 92.3663 81.0063 92.3131 81.166C92.2599 81.3257 92.1991 81.4397 92.1156 81.5006C92.032 81.5614 91.9333 81.5918 91.8117 81.5918C91.713 81.5918 91.599 81.569 91.4775 81.5234C91.3559 81.4777 91.2116 81.4321 91.0596 81.3865C90.9077 81.3409 90.733 81.2876 90.5507 81.2496C90.3683 81.204 90.1632 81.1812 89.9353 81.1812C89.677 81.1812 89.4187 81.2344 89.1529 81.3409C88.8946 81.4473 88.6211 81.607 88.3476 81.8351C88.0665 82.0557 87.7778 82.3522 87.474 82.7248C87.1701 83.0974 86.8435 83.5537 86.5016 84.1012V94.4278C86.5016 94.5495 86.4636 94.6635 86.3877 94.7548C86.3117 94.846 86.1901 94.9221 86.0078 94.9905C85.8255 95.0589 85.59 95.097 85.2937 95.1274C84.9975 95.1578 84.6176 95.173 84.1618 95.173C83.706 95.173 83.3262 95.1578 83.0299 95.1274C82.7336 95.097 82.4905 95.0513 82.3158 94.9905C82.1411 94.9297 82.0119 94.8536 81.936 94.7548C81.86 94.6635 81.822 94.5571 81.822 94.4278V77.8581C81.822 77.7364 81.8524 77.6224 81.9132 77.5311C81.974 77.4399 82.0879 77.3638 82.2474 77.2954C82.407 77.2346 82.6121 77.1889 82.8704 77.1585C83.1287 77.1281 83.4401 77.1129 83.8276 77.1129C84.2226 77.1129 84.5492 77.1281 84.8075 77.1585C85.0658 77.1889 85.2709 77.2346 85.4077 77.2954C85.552 77.3562 85.6508 77.4323 85.7115 77.5311C85.7723 77.6224 85.8027 77.7288 85.8027 77.8581V79.9189C86.2357 79.3029 86.6459 78.7858 87.0258 78.3828C87.4056 77.9798 87.7779 77.6604 88.1197 77.4247C88.4692 77.1889 88.811 77.0293 89.1605 76.9304C89.5099 76.8391 89.8517 76.7935 90.2012 76.7935C90.3607 76.7935 90.5355 76.8011 90.7178 76.8239C90.9077 76.8391 91.0976 76.8772 91.2951 76.9152C91.4926 76.9608 91.6674 77.0064 91.8117 77.0673C91.9636 77.1205 92.07 77.1813 92.1384 77.2422C92.2067 77.303 92.2599 77.3714 92.2903 77.4475C92.3207 77.5235 92.3511 77.6224 92.3739 77.7517C92.3966 77.8809 92.4194 78.0786 92.427 78.3372C92.4574 78.6033 92.465 78.9531 92.465 79.4018Z" fill="#2B3990"/>
<path d="M111.047 94.4354C111.047 94.5571 111.016 94.6711 110.956 94.7624C110.895 94.8536 110.788 94.9297 110.629 94.9981C110.477 95.059 110.272 95.1046 110.014 95.135C109.763 95.1654 109.444 95.1806 109.056 95.1806C108.646 95.1806 108.32 95.1654 108.061 95.135C107.811 95.1046 107.605 95.059 107.461 94.9981C107.309 94.9373 107.21 94.8612 107.142 94.7624C107.081 94.6711 107.051 94.5647 107.051 94.4354V92.5191C106.132 93.5077 105.205 94.2529 104.255 94.7472C103.306 95.2415 102.326 95.4924 101.315 95.4924C100.176 95.4924 99.2187 95.3099 98.4514 94.9373C97.6765 94.5647 97.0536 94.0552 96.575 93.4164C96.0964 92.7701 95.7546 92.0249 95.557 91.1808C95.3519 90.3291 95.2532 89.2797 95.2532 88.0098V77.8657C95.2532 77.7441 95.2836 77.63 95.3519 77.5388C95.4203 77.4475 95.5418 77.3715 95.7242 77.303C95.9065 77.2422 96.142 77.1966 96.4459 77.1661C96.7497 77.1357 97.122 77.1205 97.5702 77.1205C98.026 77.1205 98.4058 77.1357 98.7021 77.1661C98.9983 77.1966 99.2338 77.2422 99.4162 77.303C99.5985 77.3639 99.72 77.4399 99.796 77.5388C99.872 77.63 99.91 77.7365 99.91 77.8657V87.2266C99.91 88.0935 99.9631 88.755 100.077 89.2113C100.191 89.6675 100.358 90.063 100.586 90.3899C100.814 90.7169 101.103 90.9755 101.46 91.1504C101.809 91.3329 102.227 91.4165 102.69 91.4165C103.283 91.4165 103.883 91.196 104.483 90.7626C105.083 90.3291 105.721 89.698 106.405 88.8691V77.8505C106.405 77.7289 106.436 77.6148 106.504 77.5235C106.572 77.4323 106.694 77.3563 106.876 77.2878C107.058 77.227 107.294 77.1814 107.59 77.1509C107.887 77.1205 108.266 77.1053 108.722 77.1053C109.178 77.1053 109.558 77.1205 109.854 77.1509C110.15 77.1814 110.386 77.227 110.561 77.2878C110.735 77.3487 110.857 77.4247 110.933 77.5235C111.009 77.6148 111.047 77.7213 111.047 77.8505V94.4354Z" fill="#2B3990"/>
<path d="M125.875 89.7512C125.875 90.6941 125.701 91.523 125.344 92.2378C124.994 92.9526 124.493 93.5533 123.847 94.04C123.201 94.5267 122.442 94.8841 121.568 95.1274C120.687 95.3707 119.737 95.4924 118.712 95.4924C118.096 95.4924 117.504 95.4468 116.942 95.3555C116.379 95.2643 115.87 95.1426 115.43 95.0057C114.982 94.8612 114.609 94.7168 114.313 94.5723C114.017 94.4202 113.797 94.2833 113.667 94.1541C113.531 94.0248 113.424 93.8195 113.348 93.5381C113.272 93.2568 113.234 92.8461 113.234 92.3062C113.234 91.9488 113.25 91.6599 113.272 91.4393C113.295 91.2188 113.333 91.0515 113.386 90.9222C113.432 90.793 113.5 90.7017 113.569 90.6637C113.645 90.6181 113.736 90.5953 113.85 90.5953C113.986 90.5953 114.184 90.6713 114.45 90.831C114.716 90.9831 115.05 91.158 115.445 91.3405C115.84 91.523 116.303 91.6979 116.828 91.8576C117.352 92.0173 117.952 92.1009 118.62 92.1009C119.038 92.1009 119.418 92.0553 119.745 91.9716C120.071 91.888 120.36 91.7587 120.596 91.599C120.839 91.4393 121.021 91.234 121.143 90.9831C121.264 90.7321 121.332 90.4508 121.332 90.1314C121.332 89.7588 121.219 89.4394 120.991 89.1733C120.763 88.9071 120.459 88.6714 120.079 88.4737C119.699 88.276 119.274 88.0935 118.795 87.9186C118.317 87.7437 117.83 87.5536 117.329 87.3406C116.828 87.1277 116.341 86.892 115.863 86.6182C115.384 86.3445 114.959 86.0099 114.579 85.6145C114.199 85.2191 113.895 84.74 113.667 84.1849C113.439 83.6298 113.326 82.9606 113.326 82.1774C113.326 81.3865 113.477 80.6565 113.789 79.9949C114.1 79.3334 114.541 78.763 115.126 78.2916C115.711 77.8201 116.417 77.4551 117.253 77.1966C118.089 76.938 119.023 76.8087 120.064 76.8087C120.58 76.8087 121.089 76.8468 121.576 76.9228C122.062 76.9989 122.51 77.0901 122.905 77.2042C123.3 77.3182 123.634 77.4399 123.908 77.5692C124.181 77.6984 124.379 77.8125 124.493 77.9038C124.614 77.995 124.69 78.0863 124.743 78.1851C124.789 78.2764 124.827 78.3904 124.857 78.5197C124.88 78.649 124.903 78.8087 124.926 79.0064C124.941 79.1965 124.956 79.4398 124.956 79.7212C124.956 80.0558 124.949 80.3295 124.926 80.5424C124.903 80.7554 124.873 80.9227 124.835 81.0443C124.789 81.166 124.736 81.2496 124.66 81.2953C124.584 81.3409 124.5 81.3637 124.402 81.3637C124.288 81.3637 124.113 81.2953 123.885 81.166C123.657 81.0367 123.353 80.8998 123.004 80.7478C122.654 80.5957 122.244 80.4588 121.781 80.3295C121.317 80.2002 120.786 80.1318 120.193 80.1318C119.775 80.1318 119.411 80.1774 119.099 80.2611C118.788 80.3447 118.537 80.474 118.339 80.6337C118.142 80.7934 117.99 80.9835 117.891 81.204C117.792 81.4245 117.739 81.6527 117.739 81.9036C117.739 82.2914 117.853 82.6108 118.089 82.8693C118.324 83.1279 118.636 83.356 119.015 83.5537C119.395 83.7514 119.836 83.9339 120.322 84.1088C120.808 84.2837 121.302 84.4738 121.811 84.6792C122.312 84.8845 122.806 85.1202 123.292 85.394C123.779 85.6677 124.219 86.0023 124.599 86.3977C124.979 86.7931 125.29 87.2646 125.526 87.8197C125.761 88.3444 125.875 88.9984 125.875 89.7512Z" fill="#2B3990"/>
<path d="M142.733 94.4886C142.733 94.6635 142.672 94.8004 142.543 94.8993C142.421 94.9981 142.224 95.0666 141.958 95.1122C141.692 95.1578 141.297 95.1806 140.78 95.1806C140.226 95.1806 139.815 95.1578 139.565 95.1122C139.314 95.0666 139.132 94.9981 139.025 94.8993C138.919 94.8004 138.866 94.6635 138.866 94.4886V93.1731C138.182 93.9031 137.407 94.4734 136.534 94.8841C135.66 95.2947 134.695 95.5 133.632 95.5C132.75 95.5 131.945 95.3859 131.208 95.1578C130.471 94.9297 129.833 94.5875 129.294 94.1388C128.755 93.6902 128.337 93.1275 128.041 92.4583C127.744 91.7891 127.592 91.0059 127.592 90.1162C127.592 89.1504 127.782 88.314 128.162 87.5992C128.542 86.8844 129.104 86.2989 129.849 85.835C130.593 85.3711 131.527 85.0289 132.644 84.8008C133.761 84.5803 135.052 84.4662 136.526 84.4662H138.144V83.4625C138.144 82.9454 138.091 82.4891 137.985 82.0937C137.878 81.6983 137.704 81.3789 137.468 81.1204C137.225 80.8618 136.906 80.6717 136.503 80.5424C136.101 80.4132 135.599 80.3599 135.007 80.3599C134.224 80.3599 133.533 80.4436 132.918 80.6185C132.302 80.7934 131.763 80.9835 131.292 81.1964C130.821 81.4093 130.426 81.5994 130.114 81.7743C129.795 81.9492 129.545 82.0329 129.347 82.0329C129.21 82.0329 129.089 81.9872 128.982 81.9036C128.876 81.8199 128.793 81.6907 128.724 81.531C128.656 81.3713 128.603 81.1736 128.565 80.9378C128.527 80.7021 128.511 80.4436 128.511 80.1546C128.511 79.7744 128.542 79.4702 128.603 79.2421C128.663 79.0216 128.785 78.8163 128.952 78.6414C129.127 78.4589 129.431 78.2612 129.864 78.0482C130.297 77.8277 130.806 77.63 131.383 77.4475C131.968 77.265 132.599 77.1129 133.282 76.9912C133.966 76.8772 134.68 76.8163 135.409 76.8163C136.708 76.8163 137.817 76.9456 138.744 77.1966C139.663 77.4475 140.423 77.8429 141.016 78.3676C141.608 78.8923 142.041 79.5691 142.315 80.4056C142.588 81.2344 142.725 82.223 142.725 83.356V94.4886H142.733ZM138.144 87.3939H136.359C135.607 87.3939 134.961 87.4471 134.429 87.5612C133.898 87.6752 133.465 87.8425 133.13 88.063C132.796 88.2836 132.553 88.5573 132.401 88.8691C132.249 89.1885 132.166 89.5459 132.166 89.9565C132.166 90.6485 132.386 91.196 132.826 91.5914C133.267 91.9868 133.875 92.1845 134.657 92.1845C135.311 92.1845 135.918 92.0173 136.465 91.6827C137.012 91.3481 137.574 90.8614 138.144 90.215V87.3939Z" fill="#2B3990"/>
<path d="M161.572 94.4354C161.572 94.5723 161.542 94.6863 161.481 94.7776C161.42 94.8689 161.314 94.9449 161.162 95.0133C161.01 95.0742 160.813 95.1198 160.562 95.1426C160.311 95.1654 159.992 95.1806 159.628 95.1806C159.233 95.1806 158.913 95.1654 158.663 95.1426C158.412 95.1198 158.215 95.0742 158.063 95.0133C157.911 94.9525 157.797 94.8765 157.728 94.7776C157.66 94.6863 157.63 94.5723 157.63 94.4354V92.5952C156.779 93.5153 155.882 94.2225 154.948 94.732C154.014 95.2415 152.98 95.4924 151.841 95.4924C150.58 95.4924 149.509 95.2491 148.643 94.7548C147.769 94.2681 147.055 93.6065 146.508 92.7777C145.961 91.9488 145.558 90.9755 145.308 89.8729C145.057 88.7626 144.936 87.5992 144.936 86.3673C144.936 84.8921 145.095 83.5689 145.407 82.3903C145.726 81.2116 146.181 80.2078 146.789 79.379C147.397 78.5501 148.149 77.9114 149.053 77.4627C149.957 77.0141 150.998 76.7935 152.168 76.7935C153.094 76.7935 153.938 76.9836 154.69 77.3639C155.442 77.7441 156.194 78.2992 156.938 79.0292V70.0562C156.938 69.9345 156.969 69.8204 157.037 69.7216C157.105 69.6227 157.227 69.5391 157.409 69.4706C157.592 69.4022 157.827 69.349 158.123 69.311C158.42 69.2729 158.8 69.2577 159.255 69.2577C159.711 69.2577 160.091 69.2729 160.387 69.311C160.684 69.349 160.919 69.4022 161.094 69.4706C161.268 69.5391 161.39 69.6227 161.466 69.7216C161.542 69.8204 161.58 69.9345 161.58 70.0562V94.4354H161.572ZM156.931 83.356C156.262 82.5119 155.624 81.8732 155.009 81.4245C154.393 80.9759 153.755 80.7554 153.087 80.7554C152.479 80.7554 151.955 80.9074 151.522 81.2116C151.081 81.5158 150.732 81.9188 150.466 82.4283C150.2 82.9378 150.003 83.5005 149.873 84.1316C149.744 84.7552 149.676 85.4016 149.676 86.0555C149.676 86.7475 149.729 87.4243 149.843 88.0783C149.957 88.7322 150.139 89.3177 150.39 89.8348C150.641 90.3519 150.983 90.7625 151.4 91.0667C151.818 91.3709 152.35 91.5306 152.996 91.5306C153.315 91.5306 153.626 91.485 153.93 91.3937C154.234 91.3025 154.545 91.1504 154.857 90.9374C155.168 90.7245 155.495 90.4508 155.829 90.1086C156.164 89.7664 156.528 89.3482 156.923 88.8539V83.356H156.931Z" fill="#2B3990"/>
<path d="M180.048 85.6601C180.048 86.2304 179.918 86.6486 179.668 86.9224C179.417 87.1962 179.068 87.333 178.619 87.333H168.539C168.539 88.0402 168.622 88.679 168.789 89.2569C168.956 89.8348 169.222 90.3215 169.587 90.7245C169.952 91.1276 170.423 91.4317 171 91.6446C171.577 91.8576 172.269 91.964 173.066 91.964C173.887 91.964 174.601 91.9032 175.216 91.7891C175.831 91.6751 176.371 91.5382 176.819 91.4013C177.267 91.2568 177.647 91.1276 177.943 91.0135C178.24 90.8994 178.483 90.8386 178.665 90.8386C178.779 90.8386 178.87 90.8614 178.946 90.907C179.022 90.9527 179.083 91.0287 179.128 91.1428C179.174 91.2568 179.212 91.4089 179.227 91.6142C179.242 91.8195 179.257 92.0781 179.257 92.3823C179.257 92.656 179.25 92.8841 179.242 93.0818C179.227 93.272 179.212 93.4392 179.189 93.5761C179.166 93.713 179.128 93.8271 179.075 93.9183C179.022 94.0096 178.961 94.1008 178.878 94.1845C178.794 94.2681 178.581 94.3898 178.217 94.5343C177.852 94.6787 177.396 94.8308 176.842 94.9677C176.287 95.1122 175.649 95.2339 174.927 95.3403C174.206 95.4468 173.438 95.5 172.626 95.5C171.152 95.5 169.86 95.3175 168.759 94.9449C167.65 94.5723 166.723 94.0096 165.986 93.2567C165.242 92.5039 164.687 91.5458 164.322 90.3975C163.958 89.2417 163.775 87.8957 163.775 86.3445C163.775 84.8693 163.965 83.5385 164.353 82.3598C164.733 81.1736 165.295 80.1774 166.024 79.3486C166.753 78.5273 167.642 77.8961 168.69 77.4627C169.739 77.0293 170.916 76.8163 172.223 76.8163C173.606 76.8163 174.791 77.0217 175.778 77.4323C176.766 77.8429 177.571 78.4056 178.202 79.1356C178.832 79.858 179.295 80.7173 179.592 81.7059C179.888 82.6944 180.04 83.7742 180.04 84.9377V85.6601H180.048ZM175.512 84.3217C175.55 83.0062 175.284 81.9796 174.722 81.2268C174.16 80.474 173.286 80.1014 172.117 80.1014C171.524 80.1014 171.007 80.2154 170.567 80.436C170.126 80.6565 169.762 80.9607 169.473 81.3409C169.184 81.7211 168.956 82.1621 168.804 82.6792C168.652 83.1963 168.561 83.7438 168.539 84.3217H175.512Z" fill="#2B3990"/>
<path d="M193 79.4018C193 79.8504 192.985 80.2154 192.962 80.4968C192.939 80.7782 192.901 81.0063 192.848 81.166C192.795 81.3257 192.734 81.4397 192.65 81.5006C192.567 81.5614 192.468 81.5918 192.347 81.5918C192.248 81.5918 192.134 81.569 192.012 81.5234C191.891 81.4777 191.746 81.4321 191.595 81.3865C191.443 81.3409 191.268 81.2876 191.086 81.2496C190.903 81.204 190.698 81.1812 190.47 81.1812C190.212 81.1812 189.954 81.2344 189.688 81.3409C189.429 81.4473 189.156 81.607 188.883 81.8351C188.601 82.0557 188.313 82.3522 188.009 82.7248C187.705 83.0974 187.378 83.5537 187.037 84.1012V94.4278C187.037 94.5495 186.999 94.6635 186.923 94.7548C186.847 94.846 186.725 94.9221 186.543 94.9905C186.36 95.0589 186.125 95.097 185.829 95.1274C185.532 95.1578 185.153 95.173 184.697 95.173C184.241 95.173 183.861 95.1578 183.565 95.1274C183.269 95.097 183.025 95.0513 182.851 94.9905C182.676 94.9297 182.547 94.8536 182.471 94.7548C182.395 94.6635 182.357 94.5571 182.357 94.4278V77.8581C182.357 77.7364 182.387 77.6224 182.448 77.5311C182.509 77.4399 182.623 77.3638 182.782 77.2954C182.942 77.2346 183.147 77.1889 183.405 77.1585C183.664 77.1281 183.975 77.1129 184.362 77.1129C184.758 77.1129 185.084 77.1281 185.342 77.1585C185.601 77.1889 185.806 77.2346 185.943 77.2954C186.087 77.3562 186.186 77.4323 186.246 77.5311C186.307 77.6224 186.338 77.7288 186.338 77.8581V79.9189C186.771 79.3029 187.181 78.7858 187.561 78.3828C187.941 77.9798 188.313 77.6604 188.655 77.4247C189.004 77.1889 189.346 77.0293 189.695 76.9304C190.045 76.8391 190.387 76.7935 190.736 76.7935C190.896 76.7935 191.07 76.8011 191.253 76.8239C191.443 76.8391 191.633 76.8772 191.83 76.9152C192.028 76.9608 192.202 77.0064 192.347 77.0673C192.499 77.1205 192.605 77.1813 192.673 77.2422C192.742 77.303 192.795 77.3714 192.825 77.4475C192.856 77.5235 192.886 77.6224 192.909 77.7517C192.932 77.8809 192.954 78.0786 192.962 78.3372C192.992 78.6033 193 78.9531 193 79.4018Z" fill="#2B3990"/>
<path d="M116.972 57.0757C114.815 57.9654 112.604 58.5205 110.393 58.7258C108.183 58.9387 105.98 58.8019 103.799 58.4369L102.158 58.1023C101.611 57.9882 101.08 57.8133 100.533 57.6688C99.9934 57.5396 99.454 57.3571 98.9146 57.1822C98.3753 57.0149 97.8435 56.8324 97.3041 56.6194C95.1618 55.8514 93.0272 54.9085 90.8165 54.034C88.6059 53.1671 86.3269 52.3687 83.9643 51.8744C83.3717 51.7451 82.7716 51.6311 82.1715 51.5474C81.5637 50.6577 80.8496 49.2889 80.3559 47.2814L87.9906 48.2928C87.9906 48.2928 91.3559 36.9168 92.4346 33.3276C95.3594 23.5561 95.0403 17.3663 95.0403 17.3663C95.0403 17.3663 98.3221 22.887 100.829 29.7308C100.829 29.7308 104.536 39.7684 103.321 42.9166C103.321 42.9166 97.9043 46.0723 92.7689 48.2928L110.355 47.2814C110.355 47.2814 109.93 49.8365 109.261 51.9809C109.345 52.0189 109.436 52.0493 109.535 52.0797C109.907 52.1938 110.454 52.2698 111.168 52.3078C111.882 52.3459 112.87 52.3611 114.146 52.3611C115.369 52.3611 116.334 52.3306 117.033 52.2698C117.732 52.209 118.218 52.0417 118.499 51.7831C118.772 51.517 118.871 51.1292 118.795 50.5969C118.719 50.0722 118.529 49.3574 118.233 48.4601C118.233 48.4601 96.59 0.446814 96.4837 0.500044C96.3773 0.553274 74.7419 48.384 74.7419 48.384C74.4456 49.2585 74.2557 49.9581 74.1797 50.4828C74.1113 50.9771 74.1873 51.3649 74.4076 51.6463C72.8351 51.9048 71.293 52.3078 69.7888 52.8325C74.4988 52.8021 79.0416 53.2432 83.3338 54.7716C85.4836 55.5092 87.5879 56.4293 89.715 57.4103L92.9436 58.8779C94.0451 59.3494 95.1467 59.8132 96.2862 60.2315C98.5576 61.0451 100.913 61.6991 103.328 61.9804C105.759 62.2466 108.243 62.1934 110.659 61.6535C113.083 61.1212 115.43 60.1402 117.572 58.741C119.692 57.3266 121.697 55.6005 123.194 53.38C121.241 54.9997 119.129 56.1936 116.972 57.0757Z" fill="#2B3990"/>
<path d="M103.313 65.159C101.832 65.1362 100.388 64.9841 98.9678 64.7408C96.1266 64.2161 93.407 63.2808 90.7329 62.0793C90.0644 61.7827 89.4035 61.4633 88.7274 61.144C88.0589 60.8246 87.398 60.49 86.6687 60.163C85.2481 59.4862 83.7591 58.9615 82.2398 58.5357C80.7204 58.1175 79.1555 57.8589 77.583 57.7753C76.0181 57.722 74.4152 57.7829 72.9414 58.3C74.4759 58.3988 75.9345 58.7258 77.3627 59.1364C78.7909 59.5319 80.1659 60.0718 81.5029 60.6573C82.8475 61.2352 84.1618 61.8892 85.4456 62.604C86.7143 63.3036 88.1197 64.102 89.5326 64.7408C92.3738 66.0563 95.5264 66.946 98.7323 67.0601C100.335 67.1209 101.93 66.9308 103.473 66.619C105.015 66.2616 106.489 65.7141 107.848 64.9765C106.291 65.0678 104.802 65.2198 103.313 65.159Z" fill="#2B3990"/>
</svg>
